<svg id="Layer_1" data-name="Layer 1" xmlns="http://www.w3.org/2000/svg" width="47.52" height="47.52" viewBox="0 0 47.52 47.52"><title>codepen</title><path d="M48.72,32.24a2.08,2.08,0,0,1-.91,1.7L26.1,48.42a2.26,2.26,0,0,1-1.14.34,2.2,2.2,0,0,1-1.14-.34L2.1,33.94a2.07,2.07,0,0,1-.9-1.7V17.76a2.09,2.09,0,0,1,.9-1.7L23.82,1.58A2.2,2.2,0,0,1,25,1.24a2.26,2.26,0,0,1,1.14.34L47.81,16.06a2.1,2.1,0,0,1,.91,1.7ZM10.4,25,5.28,21.58v6.84Zm12.52-8.38V7.1l-16,10.66,7.14,4.77Zm0,26.28V33.38l-8.86-5.91L6.92,32.24ZM32.17,25,25,20.17,17.74,25,25,29.83ZM43,17.76,27,7.1v9.52l8.86,5.91Zm0,14.48-7.13-4.77L27,33.38V42.9Zm1.64-3.82V21.58L39.51,25Z" transform="translate(-1.2 -1.24)" style="fill:#fff"/></svg>