<svg xmlns="http://www.w3.org/2000/svg" width="47.52" height="47.52" data-name="Layer 1" viewBox="0 0 47.52 47.52"><title>codepen</title><path fill="#fff" d="M47.52 31a2.08 2.08 0 0 1-.91 1.7L24.9 47.18a2.26 2.26 0 0 1-1.14.34 2.2 2.2 0 0 1-1.14-.34L.9 32.7A2.07 2.07 0 0 1 0 31V16.52a2.09 2.09 0 0 1 .9-1.7L22.62.34A2.2 2.2 0 0 1 23.8 0a2.26 2.26 0 0 1 1.14.34l21.67 14.48a2.1 2.1 0 0 1 .91 1.7zM9.2 23.76l-5.12-3.42v6.84zm12.52-8.38V5.86l-16 10.66 7.14 4.77zm0 26.28v-9.52l-8.86-5.91L5.72 31zm9.25-17.9l-7.17-4.83-7.26 4.83 7.26 4.83zm10.83-7.24l-16-10.66v9.52l8.86 5.91zm0 14.48l-7.13-4.77-8.87 5.91v9.52zm1.64-3.82v-6.84l-5.13 3.42z"/></svg>