<svg xmlns="http://www.w3.org/2000/svg" width="48.23" height="40.81" data-name="Layer 1" viewBox="0 0 48.23 40.81"><title>github</title><path fill="#fff" d="M46.45 32.31c-3.82 7.74-14.34 8.49-21.88 8.49s-18.81-.66-22.78-8.49A21.34 21.34 0 0 1 0 22.72a17.21 17.21 0 0 1 3.94-11.48 15.93 15.93 0 0 1-.83-4.92A14.2 14.2 0 0 1 4.63 0c4.58 0 7.51 2 11 4.72a39 39 0 0 1 9-1 35.11 35.11 0 0 1 8.12.92C36.11 1.94 39.11 0 43.58 0a14.07 14.07 0 0 1 1.53 6.32 15.4 15.4 0 0 1-.78 4.86 17.42 17.42 0 0 1 3.94 11.54 21.8 21.8 0 0 1-1.82 9.59zM34.31 19.47a41.69 41.69 0 0 0-5.65.61 30.09 30.09 0 0 1-4.55.32 30 30 0 0 1-4.55-.32 41.35 41.35 0 0 0-5.65-.61c-4.73 0-7.42 3.92-7.42 8.35 0 8.87 8.11 10.23 15.19 10.23h4.86c7.07 0 15.19-1.36 15.19-10.23 0-4.42-2.7-8.35-7.42-8.35zM14.83 33.4c-2.6 0-3.72-3.47-3.72-5.58s1.11-5.57 3.71-5.57 3.71 3.45 3.71 5.57-1.09 5.58-3.7 5.58zm18.56 0c-2.62 0-3.71-3.45-3.71-5.56s1.09-5.57 3.71-5.57 3.72 3.43 3.72 5.55-1.12 5.58-3.72 5.58z"/></svg>