<svg id="Layer_1" data-name="Layer 1" xmlns="http://www.w3.org/2000/svg" width="48.23" height="40.81" viewBox="0 0 48.23 40.81"><title>github</title><path d="M47.34,36.91C43.52,44.65,33,45.4,25.46,45.4S6.65,44.74,2.68,36.91A21.34,21.34,0,0,1,.89,27.32,17.21,17.21,0,0,1,4.83,15.84,15.93,15.93,0,0,1,4,10.92,14.2,14.2,0,0,1,5.52,4.6c4.58,0,7.51,2,11,4.72a39,39,0,0,1,9-1,35.11,35.11,0,0,1,8.12.92C37,6.54,40,4.6,44.47,4.6A14.07,14.07,0,0,1,46,10.92a15.4,15.4,0,0,1-.78,4.86,17.42,17.42,0,0,1,3.94,11.54A21.8,21.8,0,0,1,47.34,36.91ZM35.2,24.07a41.69,41.69,0,0,0-5.65.61A30.09,30.09,0,0,1,25,25a30,30,0,0,1-4.55-.32,41.35,41.35,0,0,0-5.65-.61c-4.73,0-7.42,3.92-7.42,8.35,0,8.87,8.11,10.23,15.19,10.23h4.86c7.07,0,15.19-1.36,15.19-10.23C42.62,28,39.92,24.07,35.2,24.07ZM15.72,38C13.12,38,12,34.53,12,32.42s1.11-5.57,3.71-5.57,3.71,3.45,3.71,5.57S18.33,38,15.72,38Zm18.56,0c-2.62,0-3.71-3.45-3.71-5.56s1.09-5.57,3.71-5.57S38,30.3,38,32.42,36.88,38,34.28,38Z" transform="translate(-0.89 -4.6)" style="fill:#fff"/></svg>