<svg xmlns="http://www.w3.org/2000/svg" width="48.41" height="46.27" data-name="Layer 1" viewBox="0 0 48.41 46.27"><title>linkedin</title><path fill="#fff" d="M5.8 10.78h-.06A5.37 5.37 0 0 1 0 5.39C0 2.33 2.33 0 5.87 0s5.72 2.33 5.79 5.39-2.23 5.39-5.86 5.39zM11 46.26H.59V15.03h10.4zm37.41 0H38.04v-16.7c0-4.19-1.51-7.06-5.26-7.06a5.69 5.69 0 0 0-5.33 3.78 7.94 7.94 0 0 0-.34 2.56v17.42H16.74c.13-28.3 0-31.23 0-31.23h10.37v4.54h-.07a10.31 10.31 0 0 1 9.43-5.26c6.84 0 11.94 4.47 11.94 14.05z"/></svg>