<svg id="Layer_1" data-name="Layer 1" xmlns="http://www.w3.org/2000/svg" width="48.41" height="46.27" viewBox="0 0 48.41 46.27"><title>linkedin</title><path d="M6.21,12.65H6.15A5.37,5.37,0,0,1,.41,7.26c0-3.06,2.33-5.39,5.87-5.39S12,4.2,12.07,7.26,9.84,12.65,6.21,12.65Zm5.2,35.48H1V16.9h10.4Zm37.41,0H38.45V31.43c0-4.19-1.51-7.06-5.26-7.06a5.69,5.69,0,0,0-5.33,3.78,7.94,7.94,0,0,0-.34,2.56V48.13H17.15c.13-28.3,0-31.23,0-31.23H27.52v4.54h-.07a10.31,10.31,0,0,1,9.43-5.26c6.84,0,11.94,4.47,11.94,14.05Z" transform="translate(-0.41 -1.87)" style="fill:#fff"/></svg>