<svg id="Layer_1" data-name="Layer 1" xmlns="http://www.w3.org/2000/svg" width="47.68" height="37.46" viewBox="0 0 47.68 37.46"><title>mail</title><path d="M44.29,17.75C40.14,20.62,36,23.5,31.84,26.4,30.11,27.59,27.18,30,25,30H25c-2.15,0-5.08-2.45-6.81-3.64C14,23.5,9.86,20.62,5.74,17.75c-1.89-1.28-4.58-4.28-4.58-6.7,0-2.61,1.41-4.85,4.26-4.85H44.58a4.29,4.29,0,0,1,4.26,4.26C48.84,13.44,46.63,16.13,44.29,17.75Zm4.55,21.66a4.26,4.26,0,0,1-4.26,4.25H5.42a4.27,4.27,0,0,1-4.26-4.25V18.28A14.91,14.91,0,0,0,3.85,20.6c4.42,3,8.89,6,13.22,9.18,2.24,1.65,5,3.67,7.9,3.67H25c2.9,0,5.66-2,7.9-3.67,4.34-3.14,8.81-6.18,13.25-9.18a15.81,15.81,0,0,0,2.66-2.32Z" transform="translate(-1.16 -6.2)" style="fill:#fff"/></svg>