<svg xmlns="http://www.w3.org/2000/svg" width="47.68" height="37.46" data-name="Layer 1" viewBox="0 0 47.68 37.46"><title>mail</title><path fill="#fff" d="M43.13 11.55c-4.15 2.87-8.29 5.75-12.45 8.65-1.73 1.19-4.66 3.6-6.84 3.6-2.15 0-5.08-2.45-6.81-3.64-4.19-2.86-8.33-5.74-12.45-8.61C2.69 10.27 0 7.27 0 4.85 0 2.24 1.41 0 4.26 0h39.16a4.29 4.29 0 0 1 4.26 4.26c0 2.98-2.21 5.67-4.55 7.29zm4.55 21.66a4.26 4.26 0 0 1-4.26 4.25H4.26A4.27 4.27 0 0 1 0 33.21V12.08a14.91 14.91 0 0 0 2.69 2.32c4.42 3 8.89 6 13.22 9.18 2.24 1.65 5 3.67 7.9 3.67h.03c2.9 0 5.66-2 7.9-3.67 4.34-3.14 8.81-6.18 13.25-9.18a15.81 15.81 0 0 0 2.66-2.32z"/></svg>