<svg xmlns="http://www.w3.org/2000/svg" width="278.43" height="285.62" viewBox="0 0 278.43 285.62"><g data-name="&lt;Group&gt;"><g data-name="&lt;Group&gt;"><path fill="#d6d6d6" d="M124.11 164.92c-2.07-.32-4.45.24-5.61 2a4.92 4.92 0 0 0-.26 4.54 8.31 8.31 0 0 0 3.11 3.49 7.29 7.29 0 0 0 3 1.27 4 4 0 0 0 3.13-.79c1.17-1 1.5-2.64 1.67-4.16a8.57 8.57 0 0 0-.11-3.35c-.7-2.5-2.75-2.66-4.93-3z" data-name="&lt;Path&gt;"/><path fill="#9b9a9a" d="M126.51 165.97c-2.07-.32-4.45.24-5.61 2a4.89 4.89 0 0 0-.25 4.54 8.22 8.22 0 0 0 3.1 3.49 7.4 7.4 0 0 0 3 1.26 4 4 0 0 0 3.13-.84c1.17-1 1.5-2.63 1.67-4.15a8.62 8.62 0 0 0-.11-3.36c-.7-2.49-2.75-2.6-4.93-2.94z" data-name="&lt;Path&gt;"/><path fill="#e0e0e0" d="M125.03 176.84a4.36 4.36 0 0 1-.72 0 7.81 7.81 0 0 1-3.3-1.36 8.81 8.81 0 0 1-3.32-3.75 5.49 5.49 0 0 1 .31-5.11c1.43-2.14 4.23-2.55 6.2-2.24l.45.07c2.07.31 4.21.63 5 3.33a9.1 9.1 0 0 1 .14 3.58c-.18 1.63-.55 3.44-1.89 4.56a4.48 4.48 0 0 1-2.87.92zm-2.05-11.42a4.67 4.67 0 0 0-4 1.79 4.25 4.25 0 0 0-.2 4 7.47 7.47 0 0 0 2.9 3.21 6.67 6.67 0 0 0 2.79 1.17 3.49 3.49 0 0 0 2.66-.65c1-.85 1.31-2.38 1.46-3.77a8 8 0 0 0-.09-3.12c-.55-1.87-1.82-2.14-4-2.47l-.46-.07a7 7 0 0 0-1.06-.09z" data-name="&lt;Compound Path&gt;"/></g><g data-name="&lt;Group&gt;"><path fill="#8f8897" d="M124.11 164.92a6.11 6.11 0 0 0-2.82.08.54.54 0 0 0-.31.7 1 1 0 0 0 .51.33 6.11 6.11 0 0 1 2.78 2.57c1 1.58 2.74 5.08 4.55 2a3.22 3.22 0 0 0-.39-4c-1.03-1.32-2.8-1.44-4.32-1.68z" data-name="&lt;Path&gt;"/><path fill="#bdb5c7" d="M127.28 172.42c-1.37 0-2.38-1.64-3.19-3l-.33-.53a5.37 5.37 0 0 0-2.48-2.33 1.42 1.42 0 0 1-.82-.6 1 1 0 0 1-.07-.82 1.26 1.26 0 0 1 .66-.72 6 6 0 0 1 3.15-.12l.48.07c1.48.22 3.15.46 4.22 1.81a3.79 3.79 0 0 1 .43 4.65c-.58 1-1.27 1.54-2 1.55zm-5.55-6.93a6.78 6.78 0 0 1 3 2.79l.34.55c.55.89 1.47 2.39 2.17 2.39.3 0 .65-.34 1-.95a2.64 2.64 0 0 0-.34-3.31c-.77-1-2.13-1.17-3.45-1.36l-.49-.07a6 6 0 0 0-2.23-.05z" data-name="&lt;Compound Path&gt;"/></g></g><g data-name="&lt;Group&gt;"><g data-name="&lt;Group&gt;"><path fill="#c1c1c1" d="M159.36 164.92c2.07-.32 4.45.24 5.61 2a4.92 4.92 0 0 1 .26 4.54 8.31 8.31 0 0 1-3.11 3.49 7.29 7.29 0 0 1-3 1.27 4 4 0 0 1-3.13-.79c-1.17-1-1.5-2.64-1.67-4.16a8.57 8.57 0 0 1 .11-3.35c.7-2.5 2.75-2.66 4.93-3z" data-name="&lt;Path&gt;"/><path fill="#9b9a9a" d="M157.78 166.08c2.07-.32 4.45.23 5.61 2a4.87 4.87 0 0 1 .26 4.53 8.13 8.13 0 0 1-3.11 3.49 7.29 7.29 0 0 1-3 1.27 4 4 0 0 1-3.13-.79c-1.17-1-1.5-2.64-1.67-4.16a8.57 8.57 0 0 1 .11-3.35c.7-2.53 2.75-2.65 4.93-2.99z" data-name="&lt;Path&gt;"/><path fill="#d6d6d6" d="M158.44 176.84a4.48 4.48 0 0 1-2.87-1c-1.34-1.12-1.71-2.93-1.89-4.56a9.1 9.1 0 0 1 .14-3.58c.79-2.7 2.93-3 5-3.33l.45-.07c2-.31 4.77.1 6.2 2.24a5.49 5.49 0 0 1 .31 5.11 8.77 8.77 0 0 1-3.33 3.75 7.73 7.73 0 0 1-3.29 1.36 4.36 4.36 0 0 1-.72.08zm2.05-11.4a7 7 0 0 0-1 .08l-.46.07c-2.2.33-3.47.6-4 2.47a8.22 8.22 0 0 0-.1 3.12c.16 1.39.46 2.92 1.47 3.77a3.46 3.46 0 0 0 2.66.65 6.67 6.67 0 0 0 2.79-1.17 7.47 7.47 0 0 0 2.88-3.23 4.25 4.25 0 0 0-.2-4 4.67 4.67 0 0 0-4.04-1.78z" data-name="&lt;Compound Path&gt;"/></g><g data-name="&lt;Group&gt;"><path fill="#8f8897" d="M159.36 164.92a6.11 6.11 0 0 1 2.82.08.54.54 0 0 1 .31.7 1 1 0 0 1-.51.33 6.11 6.11 0 0 0-2.78 2.57c-1 1.58-2.74 5.08-4.55 2a3.22 3.22 0 0 1 .39-4c1.03-1.32 2.84-1.44 4.32-1.68z" data-name="&lt;Path&gt;"/><path fill="#bdb5c7" d="M156.19 172.42c-.75 0-1.44-.53-2-1.55a3.8 3.8 0 0 1 .44-4.65c1.07-1.35 2.74-1.59 4.22-1.81l.48-.07a6 6 0 0 1 3.15.12 1.25 1.25 0 0 1 .66.73 1 1 0 0 1-.07.81 1.37 1.37 0 0 1-.78.58 5.41 5.41 0 0 0-2.52 2.35c-.11.16-.21.34-.33.53-.87 1.31-1.88 2.96-3.25 2.96zm4.68-7a8.78 8.78 0 0 0-1.42.13l-.49.07c-1.32.19-2.68.39-3.45 1.36a2.64 2.64 0 0 0-.34 3.31c.35.61.71.95 1 .95.7 0 1.62-1.49 2.17-2.39l.34-.55a6.83 6.83 0 0 1 3-2.79 3.35 3.35 0 0 0-.8-.09z" data-name="&lt;Compound Path&gt;"/></g></g><g data-name="&lt;Group&gt;"><path fill="#aaa4b2" d="M161.29 255.42a46.76 46.76 0 0 0 2.82-13.11c1.06-13.54-3.67-26.64-2.06-40.08.56-4.65 2.41-10.44-.28-14.78-1.48-2.38-4.16-3.69-6.69-4.87a22.19 22.19 0 0 0-6.41-2.22c-2.68-.34-5.38.31-8.07.56-2.47.22-5 .11-7.36.94-2.73 1-4.88 3.12-6.76 5.33a21.17 21.17 0 0 0-4.8 8.31c-.94 3.73.13 7.12.12 10.79 0 5.92-1.73 11.14-.95 17l2.62 20c1.08 8.24 2.29 16.83 7 23.66.33-.74.67-1.47 1-2.2 3 .24 4.29 4 7 5.35a7.66 7.66 0 0 0 4.08.57c9.82-.74 15.63-7.25 18.74-15.25z" data-name="&lt;Path&gt;"/></g><g data-name="&lt;Group&gt;"><path fill="#bdb5c7" d="M143.32 225.19a25 25 0 0 0 2.7-6.88c.26.76.53 1.51.8 2.27l3.21-5.62.91 2.58a21.68 21.68 0 0 0 3-7.17 3.71 3.71 0 0 1 .69 2.23l3.1-6.78a6.85 6.85 0 0 1 .67 2.58 45.32 45.32 0 0 0 5.87-28.31c-.95-6.73-4.69-11-10.27-14.71-5.23-3.44-19.71-4.19-25.27.53-3.49 3-9.48 8.06-9.62 16.76a88.64 88.64 0 0 0 .36 8.93c.34 3.92.76 8.49 3.31 11.67a5.7 5.7 0 0 1 1-1.86 7.91 7.91 0 0 0 1 4.54 2.52 2.52 0 0 0 2 1.51 12 12 0 0 1 .8-2.62 10.78 10.78 0 0 0 2.65 7.06 3.94 3.94 0 0 1 1.27-2.57 20.26 20.26 0 0 0 1.61 5.49 3.57 3.57 0 0 0 1 1.65c.14.12 1.79 1.34 1.85 1.2l.83-1.66a12.37 12.37 0 0 0 .59 4 4.26 4.26 0 0 0 2.74 2.76 5.61 5.61 0 0 1 1-1.86 11 11 0 0 0 2.2 4.28z" data-name="&lt;Path&gt;"/><path fill="#9d94a8" d="M148.71 203.23a10.44 10.44 0 0 0 3.1.21c12.23-1 13.85-13.44 12.46-23.35-.95-6.73-4.69-11-10.27-14.71-2.55-1.68-6.12-3.16-9.22-2.51-.38 1.91.31 3.84.83 5.72a36.6 36.6 0 0 1 1 14.58 34.23 34.23 0 0 1-1.71 7.26 16.55 16.55 0 0 0-.86 7.08 7.7 7.7 0 0 0 .67 2.93 5.73 5.73 0 0 0 4 2.79z" data-name="&lt;Path&gt;" opacity=".62"/><path fill="#8f8897" d="M143.32 225.79a.6.6 0 0 1-.45-.21 11.65 11.65 0 0 1-2-3.28 4.62 4.62 0 0 0-.23.62.59.59 0 0 1-.73.4 4.87 4.87 0 0 1-3.14-3.12 8.8 8.8 0 0 1-.48-2.06.79.79 0 0 1-.28.13c-.63.13-2.34-1.35-2.36-1.36a4 4 0 0 1-1.05-1.68l-.16-.41a27.18 27.18 0 0 1-1.33-4 3.16 3.16 0 0 0-.3 1.13.6.6 0 0 1-1.05.35 11.61 11.61 0 0 1-2.44-4.63.58.58 0 0 1-.54.39 3 3 0 0 1-2.56-1.82 8.4 8.4 0 0 1-1-2.66.56.56 0 0 1-.4.28.61.61 0 0 1-.58-.21c-2.69-3.35-3.11-8.14-3.44-12a86.49 86.49 0 0 1-.36-9c.15-9 6.21-14.14 9.84-17.22 5.93-5 20.74-4 26-.57 6.41 4.23 9.65 8.89 10.53 15.12a46 46 0 0 1-5.93 28.74.62.62 0 0 1-.66.27.6.6 0 0 1-.45-.55 6.77 6.77 0 0 0-.14-1l-2.49 5.43a.6.6 0 0 1-1.14-.27v-.18a22.46 22.46 0 0 1-2.59 5.47.59.59 0 0 1-1.06-.13l-.47-1.34-2.56 4.49a.64.64 0 0 1-.58.3.61.61 0 0 1-.51-.4l-.16-.45a25.45 25.45 0 0 1-2.25 5.16.59.59 0 0 1-.46.3zm-2.25-5.51h.12a.59.59 0 0 1 .46.43 10.38 10.38 0 0 0 1.59 3.38 24.65 24.65 0 0 0 2.19-5.94.6.6 0 0 1 .55-.46.55.55 0 0 1 .6.4l.37 1 2.55-4.49a.6.6 0 0 1 1.09.1l.49 1.39a20.71 20.71 0 0 0 2.28-5.91.58.58 0 0 1 .46-.45.58.58 0 0 1 .61.23 4 4 0 0 1 .4.69l2.35-5.14a.61.61 0 0 1 .54-.35.57.57 0 0 1 .55.34 7.61 7.61 0 0 1 .43 1.12 44.93 44.93 0 0 0 5-26.51c-.83-5.94-3.82-10.21-10-14.29-4.84-3.18-19.07-4.17-24.55.48-3.47 2.95-9.27 7.88-9.41 16.32a86.68 86.68 0 0 0 .35 8.87c.3 3.37.66 7.48 2.59 10.5a5.84 5.84 0 0 1 .68-1 .59.59 0 0 1 .69-.18.61.61 0 0 1 .37.61 7.29 7.29 0 0 0 .9 4.19 2.76 2.76 0 0 0 1 1.11 12.7 12.7 0 0 1 .71-2.16.58.58 0 0 1 .67-.35.6.6 0 0 1 .48.59 10.23 10.23 0 0 0 1.76 5.71 4.59 4.59 0 0 1 1.15-1.66.6.6 0 0 1 1 .38 19.09 19.09 0 0 0 1.49 5.11l.16.42a2.77 2.77 0 0 0 .75 1.23c.13.11.74.55 1.17.84l.56-1.13a.61.61 0 0 1 .66-.28.6.6 0 0 1 .47.56 12.6 12.6 0 0 0 .56 3.79 4 4 0 0 0 1.82 2.2 6.16 6.16 0 0 1 .86-1.46.61.61 0 0 1 .48-.23z" data-name="&lt;Compound Path&gt;"/></g><g data-name="&lt;Group&gt;"><path fill="#d6d6d6" d="M142.52 227.88c3.07.23 5.32-1.69 7.58-3.56.1.52.91.3 1.27-.09a5.46 5.46 0 0 0 1.43-4.17c.21.55 1 .09 1.34-.41l3.06-4.76c0 .37.5.55.81.36a1.53 1.53 0 0 0 .55-.93l.75-2.57a6 6 0 0 0 1.4-4.42c.71.29 1.25-.65 1.42-1.39 1.3-5.57 1.66-11.26 2.28-16.93a17.27 17.27 0 0 0 0-6c-.81-3.29-3.51-5.46-6.42-3.11a5.81 5.81 0 0 1-5.85.78c-.72-.33-1.38-.8-2.12-1.08a9 9 0 0 0-2.93-.42 81.85 81.85 0 0 0-10.27.18c-2.88.28-5.26 1.49-8.22 1.43a3.59 3.59 0 0 1-1.78-.34c-.46-.27-.79-.74-1.27-1a3 3 0 0 0-.9-.22c-1.78-.25-3.89-.39-5.08 1-1.75 2-1.85 7-1.64 9.45.55 6.27 2.18 12.4 2.71 18.71a3.15 3.15 0 0 0 1.36-.78 9.81 9.81 0 0 0 1.41 5.3c-.07-.25.28-.44.52-.34a1 1 0 0 1 .47.59l2.91 6.34c-.3-.66 1.58.38 1.65.44a13 13 0 0 1 2 2.58 1.11 1.11 0 0 0 .29.32c.32.24.77.18 1.14.32a2.38 2.38 0 0 1 .66.44l3.45 3c-.12-.32.32-.61.65-.53a2.07 2.07 0 0 1 .81.61c.94.89 3 1.08 4.17 1.22z" data-name="&lt;Path&gt;"/><path fill="#7c7684" d="M142.98 227.35c1.16.95 6.22-2.29 7.12-3 .1.52.91.3 1.27-.09a5.46 5.46 0 0 0 1.43-4.17c.21.55 1 .09 1.34-.41l3.06-4.76c0 .37.5.55.81.36a1.53 1.53 0 0 0 .55-.93l.75-2.57a6 6 0 0 0 1.4-4.42c.71.29 1.25-.65 1.42-1.39 1.3-5.57 1.66-11.26 2.28-16.93a17.27 17.27 0 0 0 0-6c-.81-3.29-3.51-5.46-6.42-3.11a5.81 5.81 0 0 1-5.85.78c-2.57-1.14-4.55-1.69-6.61 1a13.11 13.11 0 0 0-1.87 3.94 19.94 19.94 0 0 0-1.32 6.67 25.13 25.13 0 0 0 1.3 6.31c2.48 8.72 3.5 18.4-.37 26.6-.63 1.19-.64 1.84-.29 2.12z" data-name="&lt;Path&gt;" opacity=".39"/><path fill="#8f8897" d="M148.67 215.74a21.18 21.18 0 0 0 5-3.59 40.39 40.39 0 0 0 8.63-12c1.57-3.46 2-7.62.3-11a14.4 14.4 0 0 0-5.89-5.71 49.39 49.39 0 0 0-6.71-3.78 8.77 8.77 0 0 0-2.93-.41c-2.6-.08-7.67-1-10 .26-1 .53-1.76 2.17-2.41 3-1.59 2.07-3.37 4.1-4.79 6.29-1.3 2-2 3.71-4.12 5.09-1.79 1.16-3.82 2.23-4.74 4.16a2.84 2.84 0 0 0-.32 1.48 4 4 0 0 0 .71 1.6c2.56 4 5.17 8.06 8.7 11.24s8.18 5.42 12.92 5.06a15 15 0 0 0 5.65-1.69z" data-name="&lt;Path&gt;" opacity=".38"/><path fill="#8f8897" d="M139.46 202.35a29.38 29.38 0 0 0-4.44.18 5.41 5.41 0 0 1-2.08.07c-1.51-.39-2.49-2.33-4-2.13-.17.25-.35.5-.53.74s-3.68-3.31-4.87-2.59c-2.37 1.44 1 4.51 2.14 5.37l5.48 4.17a28.6 28.6 0 0 0 4.34 2.91c6.2 3.1 13.39.73 18.43-3.5a32.94 32.94 0 0 0 6.44-7.89 3 3 0 0 0 .51-1.26c.22-2.67-4.75 1.31-5.66 1.54a13.89 13.89 0 0 0-1.83.42 9.4 9.4 0 0 0-1.45.89 11.61 11.61 0 0 1-4.46 1.33 11.85 11.85 0 0 1-1.32.15 9.91 9.91 0 0 1-1.44-.05c-1.67-.15-3.47-.28-5.26-.35z" data-name="&lt;Path&gt;" opacity=".38"/><path fill="#e0e0e0" d="M143.03 228.5h-.56l-.44-.05h-.15c-1.33-.15-3.33-.38-4.37-1.36l-.16-.15a1.78 1.78 0 0 0-.3-.27.6.6 0 0 1-1 .35l-3.45-2.95a1.94 1.94 0 0 0-.48-.34 2.15 2.15 0 0 0-.35-.07 1.88 1.88 0 0 1-.94-.33 2.14 2.14 0 0 1-.42-.45c-.17-.24-.35-.49-.52-.76a7.64 7.64 0 0 0-1.38-1.7 8.51 8.51 0 0 0-.9-.44l-.12.07a.6.6 0 0 1-.8-.29l-2.9-6.34v-.07a.76.76 0 0 1-.19.12.61.61 0 0 1-.75-.24 10.47 10.47 0 0 1-1.45-4.49 3.41 3.41 0 0 1-.63.24.62.62 0 0 1-.51-.08.63.63 0 0 1-.25-.45c-.27-3.16-.83-6.34-1.36-9.41s-1.08-6.17-1.36-9.3c0-.3-.59-7.2 1.79-9.9 1.35-1.52 3.59-1.44 5.62-1.15a3.51 3.51 0 0 1 1.07.27 4 4 0 0 1 .84.62 3.29 3.29 0 0 0 .48.39 3.11 3.11 0 0 0 1.48.25 17.09 17.09 0 0 0 4.56-.71 22.06 22.06 0 0 1 3.6-.72 83.66 83.66 0 0 1 10.34-.18 9.56 9.56 0 0 1 3.12.46 8.34 8.34 0 0 1 1.27.63c.29.16.58.32.89.46a5.16 5.16 0 0 0 5.22-.69 4.06 4.06 0 0 1 4-.94 5.84 5.84 0 0 1 3.4 4.37 18 18 0 0 1 .06 6.21c-.13 1.21-.25 2.42-.37 3.63a106.56 106.56 0 0 1-1.92 13.37 2.76 2.76 0 0 1-1.16 1.76l-.22.09a6.58 6.58 0 0 1-1.49 4.11l-.72 2.45a2.07 2.07 0 0 1-.8 1.27 1.26 1.26 0 0 1-1 .09l-2.64 4.13a2.15 2.15 0 0 1-1.24.9 6.1 6.1 0 0 1-1.6 3.76 1.74 1.74 0 0 1-1.62.54l-.13-.05c-2.11 1.67-4.24 3.34-7.09 3.34zm-.47-1.22c2.75.21 4.83-1.5 7-3.3l.15-.12a.58.58 0 0 1 .58-.11.61.61 0 0 1 .31.26.76.76 0 0 0 .32-.19 4.89 4.89 0 0 0 1.28-3.7.6.6 0 0 1 .46-.64.61.61 0 0 1 .59.19 1.09 1.09 0 0 0 .38-.34l3.05-4.76a.6.6 0 0 1 1.07.11 1.79 1.79 0 0 0 .22-.53l.75-2.57a.94.94 0 0 1 .12-.22 5.45 5.45 0 0 0 1.27-4 .6.6 0 0 1 .82-.61 1.46 1.46 0 0 0 .61-1 103 103 0 0 0 1.89-13.21c.12-1.22.24-2.43.38-3.64a16.86 16.86 0 0 0 0-5.8 4.74 4.74 0 0 0-2.62-3.51 2.93 2.93 0 0 0-2.84.73 6.39 6.39 0 0 1-6.47.85c-.34-.15-.66-.33-1-.51a7.63 7.63 0 0 0-1.11-.55 8.51 8.51 0 0 0-2.73-.38 83.13 83.13 0 0 0-10.19.17 23.26 23.26 0 0 0-3.42.69 17.55 17.55 0 0 1-4.87.75 4.06 4.06 0 0 1-2.07-.42 3.41 3.41 0 0 1-.68-.53 2.51 2.51 0 0 0-.55-.43 2.46 2.46 0 0 0-.72-.16c-1.79-.26-3.58-.34-4.55.75-1.52 1.73-1.72 6.33-1.49 9 .27 3.08.81 6.19 1.34 9.2.49 2.83 1 5.75 1.3 8.69a2.65 2.65 0 0 0 .42-.33.6.6 0 0 1 1 .45 9.15 9.15 0 0 0 1 4.33 1.07 1.07 0 0 1 .59.05 1.61 1.61 0 0 1 .79.9l2.66 5.8a4.94 4.94 0 0 1 1.72.76 8.4 8.4 0 0 1 1.63 2c.16.25.33.49.49.72a.81.81 0 0 0 .17.19 1 1 0 0 0 .4.11 2.34 2.34 0 0 1 .59.13 2.78 2.78 0 0 1 .84.55l2.9 2.48a1.22 1.22 0 0 1 1-.18 2.11 2.11 0 0 1 .94.63l.13.12c.76.72 2.59.92 3.68 1.05h.54z" data-name="&lt;Compound Path&gt;"/></g><g data-name="&lt;Group&gt;"><path fill="#a9a8b6" d="M124.78 241.8a173 173 0 0 0 12.16 21.29c2 3 4.15 6.55 2.8 9.85l-4.42-4.2a13.16 13.16 0 0 1 3.68 6.29 7.28 7.28 0 0 1-7.11-3.23q2.24 2.12 4.54 4.16a6.72 6.72 0 0 1-8.12-2 11.56 11.56 0 0 0 4.46 2.93c-2.12.81-4.42-.46-6.33-1.68a38.25 38.25 0 0 1-7.36-5.58 35.86 35.86 0 0 1-4.86-7 45.39 45.39 0 0 1-3.65-7.4c-3.57-10.07-.11-21.72 6.9-29.78a1.77 1.77 0 0 1 1-.69c2.73-.38 3.56 4.74 3.92 6.52.71 3.56.77 7.14 2.39 10.52z" data-name="&lt;Path&gt;"/><path fill="#8f8897" d="M112.42 249.61a26.57 26.57 0 0 0 5.89 6.82 16.57 16.57 0 0 0 10.77 3.85 8.57 8.57 0 0 1 3.88.24 10.84 10.84 0 0 1 5 4.19 13.24 13.24 0 0 1 1.89 4.07 27.54 27.54 0 0 1-.14 4.16l-4.42-4.2a13.16 13.16 0 0 1 3.68 6.29 7.28 7.28 0 0 1-7.11-3.23q2.24 2.12 4.54 4.16a6.72 6.72 0 0 1-8.12-2 11.56 11.56 0 0 0 4.46 2.93c-2.12.81-4.42-.46-6.33-1.68a38.25 38.25 0 0 1-7.36-5.58 35.86 35.86 0 0 1-4.86-7 45.39 45.39 0 0 1-3.65-7.4c-.43-1.2-2.81-8.43-1.24-9.09.73-.3 1.39.53 1.76 1.22s.89 1.51 1.36 2.25z" data-name="&lt;Path&gt;" opacity=".46"/><path fill="#8f8897" d="M114.07 261.66a1.64 1.64 0 0 1 1.13.36 68 68 0 0 1 6.28 5.49 16.66 16.66 0 0 0 7.13 4.18c2.72.62 5.88 0 7.59-2.25 1-1.35 3-2.94 3.7-.45.2.72-.58 3.55-.16 3.95l-4.42-4.2a13.16 13.16 0 0 1 3.68 6.29 7.28 7.28 0 0 1-7.11-3.23q2.24 2.12 4.54 4.16a6.72 6.72 0 0 1-8.12-2 11.56 11.56 0 0 0 4.46 2.93c-2.12.81-4.42-.46-6.33-1.68a38.25 38.25 0 0 1-7.36-5.58 31.32 31.32 0 0 1-3.88-5.33c-.16-.26-1.52-1.64-1.53-1.73-.08-.57.1-.84.4-.91z" data-name="&lt;Path&gt;" opacity=".46"/><path fill="#817c89" d="M131.36 277.73a10.37 10.37 0 0 1-5.24-2 38.49 38.49 0 0 1-7.47-5.68 36.11 36.11 0 0 1-5-7.11 45 45 0 0 1-3.69-7.5c-3.42-9.62-.67-21.54 7-30.37a2.21 2.21 0 0 1 1.35-.89c3.14-.45 4.11 4.53 4.53 6.66l.06.33c.22 1.07.38 2.15.53 3.19a24.28 24.28 0 0 0 1.83 7.21 173.9 173.9 0 0 0 12.12 21.22c2.14 3.19 4.3 6.89 2.86 10.41a.62.62 0 0 1-.43.36.66.66 0 0 1-.54-.15l-.36-.35a13.81 13.81 0 0 1 .61 1.85.62.62 0 0 1-.08.48.6.6 0 0 1-.41.26 7.44 7.44 0 0 1-2.16 0 .58.58 0 0 1 .09.41.61.61 0 0 1-.33.46 6.8 6.8 0 0 1-3.4.67.61.61 0 0 1-.31.26 4.42 4.42 0 0 1-1.56.28zm-12.64-52.41h-.18c-.2 0-.42.26-.62.49-7.39 8.5-10.06 20-6.78 29.18a44.48 44.48 0 0 0 3.59 7.3 35.82 35.82 0 0 0 4.79 6.89 37.69 37.69 0 0 0 7.25 5.49 12.18 12.18 0 0 0 3.58 1.71 6.91 6.91 0 0 1-2.52-2.1.6.6 0 0 1 .92-.77 10.93 10.93 0 0 0 2.37 1.9 6.27 6.27 0 0 0 4.18.32l-1.19-1.07a7.59 7.59 0 0 1-2.72-2.56.6.6 0 0 1 .12-.78.61.61 0 0 1 .8 0l2.52 2.34a6.61 6.61 0 0 0 3.4.79 12.7 12.7 0 0 0-3.31-5.32.6.6 0 0 1 .82-.87l3.72 3.54c.57-2.75-1.23-5.76-3-8.41a174.33 174.33 0 0 1-12.21-21.37 25.62 25.62 0 0 1-1.94-7.56c-.15-1-.31-2.09-.51-3.12l-.07-.34c-.32-1.58-1.13-5.68-3.01-5.68z" data-name="&lt;Compound Path&gt;"/></g><g data-name="&lt;Group&gt;"><path fill="#a9a8b6" d="M158.88 240.72a172.33 172.33 0 0 1-9.59 22.57c-1.62 3.18-3.35 7-1.62 10.11l3.9-4.69a13.14 13.14 0 0 0-2.92 6.68 7.27 7.27 0 0 0 6.68-4c-1.32 1.58-2.65 3.13-4 4.66a6.71 6.71 0 0 0 7.82-2.95 11.66 11.66 0 0 1-4.08 3.43c2.2.56 4.33-1 6.09-2.41a38.83 38.83 0 0 0 6.66-6.4 36.24 36.24 0 0 0 4-7.53 45 45 0 0 0 2.75-7.78c2.37-10.41-2.44-21.57-10.34-28.76a1.77 1.77 0 0 0-1.06-.57c-2.75-.06-3 5.13-3.13 6.93-.27 3.61.09 7.18-1.16 10.71z" data-name="&lt;Path&gt;"/><path fill="#8f8897" d="M164.62 241.14a87.83 87.83 0 0 1-1.24 9.55 30 30 0 0 1-3.26 9.89 13.09 13.09 0 0 1-7.94 6.36 16.57 16.57 0 0 0-3.38.85c-2.26 1.06-2.15 3.71-1.09 5.61l3.9-4.69a13.14 13.14 0 0 0-2.92 6.68 7.27 7.27 0 0 0 6.68-4c-1.32 1.58-2.65 3.13-4 4.66a6.71 6.71 0 0 0 7.82-2.95 11.66 11.66 0 0 1-4.08 3.43c2.2.56 4.33-1 6.09-2.41a38.83 38.83 0 0 0 6.66-6.4 36.24 36.24 0 0 0 4-7.53 45 45 0 0 0 2.75-7.78c1.78-7.79-1-24.5-10.19-26.67a88.47 88.47 0 0 1 .2 15.4z" data-name="&lt;Path&gt;" opacity=".46"/><path fill="#8f8897" d="M172.38 240.69a36.87 36.87 0 0 1-8.79 25.84 16.81 16.81 0 0 1-3.12 2.9c-3.46 2.33-9.36 2.31-11.82 5.88 3.24.37 4.89-1.77 6.72-4-1.32 1.58-2.65 3.13-4 4.66a6.71 6.71 0 0 0 7.82-2.95 11.66 11.66 0 0 1-4.08 3.43c2.2.56 4.33-1 6.09-2.41a38.83 38.83 0 0 0 6.66-6.4 36.24 36.24 0 0 0 4-7.53 45 45 0 0 0 2.75-7.78 27.22 27.22 0 0 0 .36-8.45c-.08-.87-.05-4-.73-4.57-.16-.14-2.06-1.09-2-.27.07.58.11 1.11.14 1.65z" data-name="&lt;Path&gt;" opacity=".46"/><path fill="#817c89" d="M156.04 277.21a4.13 4.13 0 0 1-1.09-.14.57.57 0 0 1-.34-.22 6.91 6.91 0 0 1-3.46-.27.61.61 0 0 1-.38-.42.64.64 0 0 1 0-.41 7.4 7.4 0 0 1-2.15.24.65.65 0 0 1-.43-.21.61.61 0 0 1-.14-.47 13.65 13.65 0 0 1 .4-1.9l-.32.38a.65.65 0 0 1-.52.21.6.6 0 0 1-.47-.31c-1.84-3.32-.13-7.25 1.62-10.67a173 173 0 0 0 9.55-22.49 24 24 0 0 0 1-7.38c0-1.05.07-2.14.16-3.23v-.33c.17-2.16.57-7.16 3.72-7.15a2.32 2.32 0 0 1 1.44.73c8.66 7.87 12.79 19.38 10.53 29.34a46.44 46.44 0 0 1-2.79 7.88 36.06 36.06 0 0 1-4.08 7.64 39.29 39.29 0 0 1-6.76 6.52c-1.65 1.4-3.53 2.66-5.49 2.66zm-3.59-1.54a6.2 6.2 0 0 0 4.11-.81 10.89 10.89 0 0 0 2.13-2.16.61.61 0 0 1 .81-.14.59.59 0 0 1 .2.79 6.9 6.9 0 0 1-2.26 2.39 12.22 12.22 0 0 0 3.36-2.12 38.74 38.74 0 0 0 6.56-6.3 36 36 0 0 0 3.94-7.4 45.63 45.63 0 0 0 2.72-7.68c2.17-9.54-1.82-20.6-10.16-28.18a1.4 1.4 0 0 0-.67-.42c-2 0-2.34 4.39-2.46 6v.34c-.09 1.06-.12 2.13-.15 3.16a25.62 25.62 0 0 1-1 7.74 175.5 175.5 0 0 1-9.7 22.69c-1.46 2.84-2.89 6-2 8.71l3.28-3.95a.6.6 0 0 1 .93.76 12.69 12.69 0 0 0-2.68 5.69 6.73 6.73 0 0 0 3.29-1.19c.74-.86 1.49-1.74 2.23-2.62a.58.58 0 0 1 .78-.12.6.6 0 0 1 .22.76 7.72 7.72 0 0 1-2.4 2.86z" data-name="&lt;Compound Path&gt;"/></g><g data-name="&lt;Group&gt;"><g data-name="&lt;Group&gt;"><path fill="#c9c9c9" d="M147.88 194.08c-2.19-.72-4.18-2.86-6-4-2 1.08-2.45 2.92-5.29 3.92-2 .72.09 4.15 5.77 3.89s7.52-3.13 5.52-3.81z" data-name="&lt;Path&gt;"/><path fill="#8f8897" d="M144.49 193.42a4.55 4.55 0 0 0-2.41.4 10.89 10.89 0 0 1-2.66 1.29c-.66.11-2.95-.59-3.36 0s.64 1.24 1 1.49a8.66 8.66 0 0 0 5.32 1.21 9.8 9.8 0 0 0 5.28-1.43c.78-.56 1.72-1.93.17-2.25a32.72 32.72 0 0 0-3.34-.71z" data-name="&lt;Path&gt;" opacity=".38"/><path fill="#8f8897" d="M141.81 198.5c-3.71 0-6.21-1.6-6.53-3.23a1.58 1.58 0 0 1 1.13-1.85 7.16 7.16 0 0 0 3.05-2.12 8.44 8.44 0 0 1 2.16-1.76.59.59 0 0 1 .6 0c.64.41 1.27.92 1.95 1.46a13.66 13.66 0 0 0 3.88 2.48 1.57 1.57 0 0 1 1.21 1.7c-.2 1.48-2.62 3.08-6.86 3.27zm.06-7.72a8.09 8.09 0 0 0-1.55 1.36 8.3 8.3 0 0 1-3.51 2.41c-.42.15-.37.38-.35.49.17.86 2.08 2.4 5.89 2.25s5.63-1.55 5.73-2.24c0-.06 0-.25-.41-.4a14.73 14.73 0 0 1-4.25-2.68c-.54-.43-1.06-.85-1.54-1.19z" data-name="&lt;Compound Path&gt;"/></g><g data-name="&lt;Group&gt;"><path fill="#d6d6d6" d="M147.4 194.14a11.3 11.3 0 0 0 2.17.27c4.43.15 6.13-2.57 5.57-6.58s-2.74-6.44-6-8.6c-3.05-2-11.51-2.45-14.76.31-3.09 2.62-7.24 7.45-5.33 11.88 1 2.31 3.73 3.49 6.23 3.27a12.56 12.56 0 0 0 6.69-3.19 12.25 12.25 0 0 0 5.43 2.64z" data-name="&lt;Path&gt;"/><path fill="#8f8897" d="M147.4 194.14a11.3 11.3 0 0 0 2.17.27c2.21.08 4.45-.67 5.3-2.88a7.29 7.29 0 0 0 .3-3.47c-.15-1.2-.15-3.08-.94-4.07s-2.31-1-3.6-1c-2.82.07-5.65-.15-8.46.16a10.66 10.66 0 0 0-2.89.67 11.71 11.71 0 0 0-2.4 1.43c-.83.59-1.63 1.22-2.4 1.88-1 .81-2.14 1.74-3.33 1.34a6 6 0 0 1-1.18-.72c-.81-.51-2-.44-1.82.69 0 .36.34.79.43 1.17a9 9 0 0 0 .46 1.77c1 2.31 3.73 3.49 6.23 3.27a12.56 12.56 0 0 0 6.69-3.19 12.25 12.25 0 0 0 5.44 2.68z" data-name="&lt;Path&gt;" opacity=".38"/><path fill="#7c7684" d="M147.39 194.19a13.89 13.89 0 0 0 2.18.22c2.21.08 4.45-.67 5.3-2.88a7.29 7.29 0 0 0 .3-3.47c-.15-1.2-.15-3.08-.94-4.07-2.56-3.23-7.17 0-8.4 2.6-.5 1-1 2.06-1.48 3.09-1.4 2.91.67 4.08 3.04 4.51z" data-name="&lt;Path&gt;" opacity=".39"/><path fill="#8f8897" d="M134.64 195.32a6.6 6.6 0 0 1-6.16-3.66c-2.25-5.23 3.1-10.54 5.5-12.58 3.54-3 12.37-2.4 15.48-.35 3.82 2.52 5.75 5.29 6.27 9 .33 2.36-.09 4.28-1.23 5.55a6.07 6.07 0 0 1-5 1.72 12.57 12.57 0 0 1-2.28-.28 13.27 13.27 0 0 1-5.32-2.45 12.51 12.51 0 0 1-6.62 3zm7-17.14c-2.68 0-5.36.53-6.87 1.82-1.72 1.45-7.16 6.56-5.17 11.19.92 2.15 3.52 3.09 5.63 2.9a11.66 11.66 0 0 0 6.36-3.05.6.6 0 0 1 .79 0 11.45 11.45 0 0 0 5.16 2.5 10.28 10.28 0 0 0 2.06.26 4.9 4.9 0 0 0 4-1.32 5.59 5.59 0 0 0 .94-4.58c-.48-3.39-2.2-5.84-5.75-8.18-1.42-.93-4.29-1.54-7.16-1.54z" data-name="&lt;Compound Path&gt;"/></g><g data-name="&lt;Group&gt;"><path fill="#eaeaea" d="M149.65 185.16a7.88 7.88 0 0 0 2.9.21 1.63 1.63 0 0 0 .72-.21c2.16-1.48-3.21-5.31-4.14-5.93-3.05-2-11.51-2.45-14.76.31-1.73 1.47-4.32 3.61-4.39 6.07a1 1 0 0 0 .08.52c.23.44.86.42 1.35.31 2.55-.54 4.95-1.65 7.46-2.39a12 12 0 0 1 7.69-.17c.75.29 1.44.69 2.18 1a8.06 8.06 0 0 0 .91.28z" data-name="&lt;Path&gt;"/><path fill="#8f8897" d="M149.65 185.16a7.88 7.88 0 0 0 2.9.21 1.63 1.63 0 0 0 .72-.21c2.2-1.5-3.88-6.17-5-6.93-2-1.4-2.06-.51-3.62 1-.73.72-3 1.73-2.58 3s3.42 1.17 4.47 1.58c.75.29 1.44.69 2.18 1a8.06 8.06 0 0 0 .93.35z" data-name="&lt;Path&gt;" opacity=".38"/><path fill="#e0e0e0" d="M130.88 187.11a1.4 1.4 0 0 1-1.34-.7 1.6 1.6 0 0 1-.15-.82c.08-2.67 2.73-4.92 4.49-6.41l.11-.1c3.54-3 12.37-2.4 15.48-.35.51.33 4.9 3.29 4.92 5.51a1.66 1.66 0 0 1-.77 1.41 2.1 2.1 0 0 1-1 .32 8.65 8.65 0 0 1-3.12-.23 8.62 8.62 0 0 1-1-.32c-.37-.14-.73-.32-1.1-.5s-.71-.34-1.07-.48c-2-.76-4.35-.7-7.31.18-1 .29-2 .64-2.91 1a34.63 34.63 0 0 1-4.6 1.43 3.46 3.46 0 0 1-.63.06zm10.76-8.93c-2.68 0-5.36.53-6.87 1.82l-.12.09c-1.59 1.35-4 3.4-4.06 5.54a.72.72 0 0 0 0 .22s.23.1.69 0a34.74 34.74 0 0 0 4.45-1.39c1-.34 2-.7 3-1 3.22-1 5.86-1 8.08-.15.4.16.78.34 1.16.52s.68.33 1 .47a6.45 6.45 0 0 0 .85.27 7.29 7.29 0 0 0 2.67.2 1.05 1.05 0 0 0 .45-.12.45.45 0 0 0 .25-.41c0-1.12-2.62-3.36-4.38-4.52-1.44-.93-4.31-1.54-7.18-1.54z" data-name="&lt;Compound Path&gt;"/></g><g data-name="&lt;Group&gt;"><path fill="#afafaf" d="M159.47 177.97a3 3 0 0 0 .58-.65 2.54 2.54 0 0 0 0-2.42 6.48 6.48 0 0 0-1.62-1.92 7.12 7.12 0 0 0-1.79-1.25c-2.17-1-6.51 3.28-6.4 5.55a3.73 3.73 0 0 0 1.26 2.55 4.44 4.44 0 0 0 5.1.54 8.19 8.19 0 0 0 1.29-1l1.4-1.22z" data-name="&lt;Path&gt;"/><path fill="#8f8897" d="M154.41 181.54a5 5 0 0 1-3.35-1.26 4.37 4.37 0 0 1-1.45-3c-.08-1.73 1.77-4 3.61-5.31 1.39-1 2.68-1.24 3.64-.82a7.56 7.56 0 0 1 1.93 1.36 7 7 0 0 1 1.77 2.09 3.13 3.13 0 0 1 0 3 3.81 3.81 0 0 1-.68.78l-1.62 1.41a8.56 8.56 0 0 1-1.38 1.06 5 5 0 0 1-2.47.69zm1.5-9.35a4 4 0 0 0-2 .8c-1.69 1.16-3.14 3.15-3.08 4.26a3.11 3.11 0 0 0 1.05 2.17 3.87 3.87 0 0 0 4.4.46 8.11 8.11 0 0 0 1.19-.92l1.62-1.41a2.29 2.29 0 0 0 .46-.52 2 2 0 0 0 0-1.84 6.29 6.29 0 0 0-1.49-1.73 6.52 6.52 0 0 0-1.63-1.15 1.11 1.11 0 0 0-.55-.12z" data-name="&lt;Compound Path&gt;"/></g><g data-name="&lt;Group&gt;"><g data-name="&lt;Group&gt;"><path fill="#3a0400" d="M152 180.42a4 4 0 0 0 4.74.39c2-1.22 2.92-3.84 1.27-5.72a12.06 12.06 0 0 0-1.66-1.45 3.26 3.26 0 0 0-.61-.38c-1.94-.82-4.15 1.54-4.93 3.05a2.28 2.28 0 0 0-.16 1.66 4.33 4.33 0 0 0 1.35 2.45z" data-name="&lt;Path&gt;"/><path fill="#231f20" d="M154.6 182.05a4.46 4.46 0 0 1-3-1.14 4.89 4.89 0 0 1-1.55-2.79 2.89 2.89 0 0 1 .21-2c1-1.89 3.48-4.26 5.7-3.33a3.25 3.25 0 0 1 .73.46 12.07 12.07 0 0 1 1.76 1.53 3.9 3.9 0 0 1 1 3.25 4.92 4.92 0 0 1-2.38 3.38 4.66 4.66 0 0 1-2.47.64zm.3-8.32c-1.42 0-3 1.8-3.56 2.9a1.67 1.67 0 0 0-.1 1.27 3.71 3.71 0 0 0 1.16 2.11 3.38 3.38 0 0 0 4 .32 3.73 3.73 0 0 0 1.81-2.54 2.71 2.71 0 0 0-.68-2.26 11 11 0 0 0-1.57-1.37 2.59 2.59 0 0 0-.49-.31 1.53 1.53 0 0 0-.59-.12z" data-name="&lt;Compound Path&gt;"/></g><g data-name="&lt;Group&gt;"><path d="M157.46 177.6a2.76 2.76 0 1 1-2.13-3.28 2.78 2.78 0 0 1 2.13 3.28z" data-name="&lt;Path&gt;"/><path fill="#0f0f0f" d="M154.75 180.42a3.42 3.42 0 0 1-.7-.08 3.36 3.36 0 1 1 4-2.59 3.38 3.38 0 0 1-3.3 2.67zm0-5.54a2.18 2.18 0 1 0 .45.05 2.3 2.3 0 0 0-.45-.07z" data-name="&lt;Compound Path&gt;"/></g><g data-name="&lt;Group&gt;"><path fill="#fff" d="M153.68 176.05a.75.75 0 0 1-.92.55.76.76 0 0 1-.55-.92.76.76 0 1 1 1.47.37z" data-name="&lt;Path&gt;"/></g></g><g data-name="&lt;Group&gt;"><path fill="#afafaf" d="M124.75 178.08a3.26 3.26 0 0 1-.57-.66 2.56 2.56 0 0 1 0-2.42 6.76 6.76 0 0 1 1.63-1.91 7.29 7.29 0 0 1 1.78-1.26c2.18-1 6.52 3.29 6.41 5.55a3.75 3.75 0 0 1-1.26 2.56 4.44 4.44 0 0 1-5.1.53 8.77 8.77 0 0 1-1.29-1l-1.4-1.22z" data-name="&lt;Path&gt;"/><path fill="#8f8897" d="M129.82 181.64a4.82 4.82 0 0 1-2.46-.65 8.47 8.47 0 0 1-1.38-1l-1.63-1.42a3.59 3.59 0 0 1-.68-.78 3.15 3.15 0 0 1 0-3 7.25 7.25 0 0 1 1.76-2.09 7.8 7.8 0 0 1 1.94-1.36c1-.42 2.25-.13 3.64.83 1.84 1.25 3.69 3.58 3.61 5.3a4.35 4.35 0 0 1-1.45 3 5 5 0 0 1-3.35 1.17zm-1.5-9.35a1.08 1.08 0 0 0-.46.09 6.63 6.63 0 0 0-1.63 1.16 6 6 0 0 0-1.49 1.73 2 2 0 0 0-.05 1.84 2.6 2.6 0 0 0 .47.52l1.61 1.41a8.61 8.61 0 0 0 1.19.92 3.87 3.87 0 0 0 4.4-.46 3.15 3.15 0 0 0 1.06-2.14c.05-1.11-1.39-3.1-3.09-4.26a3.83 3.83 0 0 0-2.01-.81z" data-name="&lt;Compound Path&gt;"/></g><g data-name="&lt;Group&gt;"><g data-name="&lt;Group&gt;"><path fill="#3a0400" d="M132.22 180.56a3.94 3.94 0 0 1-4.73.39c-2-1.22-2.93-3.83-1.27-5.71a10.4 10.4 0 0 1 1.66-1.45 3 3 0 0 1 .61-.39c1.94-.81 4.14 1.55 4.93 3.06a2.23 2.23 0 0 1 .15 1.66 4.21 4.21 0 0 1-1.35 2.44z" data-name="&lt;Path&gt;"/><path fill="#231f20" d="M129.63 182.16a4.82 4.82 0 0 1-2.45-.69 5 5 0 0 1-2.38-3.39 3.92 3.92 0 0 1 1-3.24 11.92 11.92 0 0 1 1.75-1.53 3.11 3.11 0 0 1 .74-.46c2.21-.93 4.71 1.44 5.69 3.33a2.78 2.78 0 0 1 .21 2.05 4.76 4.76 0 0 1-1.54 2.78 4.47 4.47 0 0 1-3.02 1.15zm-.3-8.32a1.44 1.44 0 0 0-.61.12 2.27 2.27 0 0 0-.48.31 10.8 10.8 0 0 0-1.57 1.36 2.7 2.7 0 0 0-.68 2.27 3.75 3.75 0 0 0 1.81 2.54 3.36 3.36 0 0 0 4-.33 3.62 3.62 0 0 0 1.15-2.1 1.62 1.62 0 0 0-.09-1.27c-.54-1.1-2.11-2.9-3.53-2.9z" data-name="&lt;Compound Path&gt;"/></g><g data-name="&lt;Group&gt;"><path d="M126.77 177.71a2.77 2.77 0 1 0 2.11-3.29 2.76 2.76 0 0 0-2.11 3.29z" data-name="&lt;Path&gt;"/><path fill="#0f0f0f" d="M129.48 180.5a3.37 3.37 0 0 1-3.3-2.66 3.37 3.37 0 1 1 4 2.59 3.23 3.23 0 0 1-.7.07zm-2.12-2.91a2.17 2.17 0 0 0 4.24-.9 2.22 2.22 0 0 0-.94-1.37 2.1 2.1 0 0 0-1.63-.3 2.16 2.16 0 0 0-1.67 2.57z" data-name="&lt;Compound Path&gt;"/></g><g data-name="&lt;Group&gt;"><path fill="#fff" d="M126.73 176.42a.77.77 0 0 0 .93.55.76.76 0 1 0-.93-.55z" data-name="&lt;Path&gt;"/></g></g><path fill="#5a5363" d="M157.94 190.83a2.16 2.16 0 0 0-.26-.65 1.66 1.66 0 0 0-1.11-.8.61.61 0 0 0-.67.37.58.58 0 0 0 .22.72 2.16 2.16 0 0 1 .66.72 1.06 1.06 0 0 1 0 .31 2.53 2.53 0 0 1-1.14 1.24 9.81 9.81 0 0 1-6.9 1.24 13.49 13.49 0 0 1-6.1-2.91 11.66 11.66 0 0 0-.16-4.08.59.59 0 0 0-.71-.45.6.6 0 0 0-.46.71 10.18 10.18 0 0 1 .14 3.65 8.41 8.41 0 0 1-6.93 3.47 9.58 9.58 0 0 1-7.11-3.45 1 1 0 0 1-.16-.23 1.66 1.66 0 0 1 .29-.38 1.87 1.87 0 0 0 .61-1.18.61.61 0 0 0-.31-.54.6.6 0 0 0-.62 0 4.17 4.17 0 0 0-1.59 4.9.6.6 0 0 0 .78.34.59.59 0 0 0 .34-.77 2.65 2.65 0 0 1-.16-1.28 10.73 10.73 0 0 0 7.91 3.77h.12a9.73 9.73 0 0 0 7.43-3.47 14.66 14.66 0 0 0 6.53 3 10.94 10.94 0 0 0 7.74-1.41 4.74 4.74 0 0 0 .59-.43l-.06.11a.6.6 0 1 0 1 .63 3.42 3.42 0 0 0 .09-3.15z" data-name="&lt;Path&gt;"/><g data-name="&lt;Group&gt;"><g data-name="&lt;Group&gt;"><path fill="#353535" d="M145.26 181.23a6 6 0 0 0-5.68-.14c-1.47.73-4.35 2.6-3.74 4.66a2.22 2.22 0 0 0 1.16 1.23 7.91 7.91 0 0 0 3.51.7 30.09 30.09 0 0 0 4.84-.26 5.58 5.58 0 0 0 1.85-.5 1.84 1.84 0 0 0 1.13-1.47c-.06-2.03-1.87-3.44-3.07-4.22z" data-name="&lt;Path&gt;"/><path fill="#231f20" d="M141.29 188.29h-.79a8.49 8.49 0 0 1-3.78-.77 2.74 2.74 0 0 1-1.45-1.59c-.64-2.15 1.67-4.19 4-5.37a6.63 6.63 0 0 1 6.28.17c.81.53 3.27 2.14 3.34 4.71a2.35 2.35 0 0 1-1.45 2 5.92 5.92 0 0 1-2 .56 30.1 30.1 0 0 1-4.15.29zm1.09-7.25a5.87 5.87 0 0 0-2.54.58c-1.48.75-3.88 2.41-3.42 4a1.67 1.67 0 0 0 .86.86 7.27 7.27 0 0 0 3.25.64 28.92 28.92 0 0 0 4.74-.25 4.91 4.91 0 0 0 1.61-.45c.39-.2.83-.57.82-.92 0-1.31-.95-2.54-2.8-3.74a4.63 4.63 0 0 0-2.52-.72z" data-name="&lt;Compound Path&gt;"/></g><g data-name="&lt;Group&gt;"><path d="M144.02 185.24c.16-.43.6-.72 1.37-.61a4.15 4.15 0 0 0 1.88.11 1.32 1.32 0 0 1 .57-.16.63.63 0 0 1 .49.67 1.42 1.42 0 0 1-.4.8c-2.57 2.87-4.38.45-3.91-.81z" data-name="&lt;Path&gt;"/><path fill="#231f20" d="M145.62 188a2.21 2.21 0 0 1-1.14-.32 2.32 2.32 0 0 1-1-2.65 1.71 1.71 0 0 1 2-1l.49.09a2.37 2.37 0 0 0 1.11.05h.12a1.32 1.32 0 0 1 .71-.14 1.21 1.21 0 0 1 1 1.29 1.9 1.9 0 0 1-.56 1.17 3.79 3.79 0 0 1-2.73 1.51zm-.55-2.8a.48.48 0 0 0-.49.25 1.15 1.15 0 0 0 .52 1.2c.61.36 1.48 0 2.38-1 .2-.22.25-.36.25-.44s0 0-.1 0l-.17.07a3.37 3.37 0 0 1-1.73 0l-.43-.08z" data-name="&lt;Compound Path&gt;"/></g><g data-name="&lt;Group&gt;"><path d="M140.06 185.24c-.16-.43-.6-.72-1.36-.61a4.16 4.16 0 0 1-1.88.11 1.37 1.37 0 0 0-.58-.16.63.63 0 0 0-.49.67 1.42 1.42 0 0 0 .4.8c2.57 2.87 4.38.45 3.91-.81z" data-name="&lt;Path&gt;"/><path fill="#231f20" d="M138.46 188a3.79 3.79 0 0 1-2.75-1.55 2 2 0 0 1-.56-1.17 1.21 1.21 0 0 1 1-1.29 1.52 1.52 0 0 1 .72.14h.11a2.41 2.41 0 0 0 1.12-.05l.48-.09a1.72 1.72 0 0 1 2 1 2.32 2.32 0 0 1-1 2.65 2.18 2.18 0 0 1-1.12.36zm-2.18-2.82a2.77 2.77 0 0 0 .32.47c.9 1 1.77 1.37 2.38 1a1.16 1.16 0 0 0 .52-1.2c-.08-.21-.32-.29-.72-.23l-.43.08a3.37 3.37 0 0 1-1.73 0l-.17-.07a.88.88 0 0 0-.17-.05z" data-name="&lt;Compound Path&gt;"/></g><g data-name="&lt;Group&gt;"><path fill="#fff" d="M138.52 183.04c.17.38.85.44 1.52.14s1.07-.86.89-1.24-.85-.45-1.52-.14-1.07.86-.89 1.24z" data-name="&lt;Path&gt;" opacity=".24"/></g></g><g data-name="&lt;Group&gt;"><path fill="#e0e0e0" d="M130.88 184.81a.61.61 0 0 0 .69-.5.6.6 0 0 0-.49-.69c-17.76-3-42.17 3.19-51.33 10.55a.59.59 0 0 0-.09.84.57.57 0 0 0 .46.22.58.58 0 0 0 .38-.13c8.82-7.05 33.25-13.22 50.38-10.29z" data-name="&lt;Path&gt;"/><path fill="#d3d3d3" d="M203.42 196.32c-14.66-10.47-39.34-15.53-50.79-12.9a.59.59 0 0 0-.45.72.6.6 0 0 0 .71.45c11-2.52 35.65 2.59 49.83 12.71a.66.66 0 0 0 .35.11.6.6 0 0 0 .35-1.09z" data-name="&lt;Path&gt;"/><path fill="#e0e0e0" d="M131.8 187.18a.59.59 0 0 0-.61-.59c-20.18.35-38.87 6.92-50 17.58a.6.6 0 0 0 0 .85.61.61 0 0 0 .43.18.58.58 0 0 0 .42-.17c10.91-10.45 29.29-16.9 49.18-17.24a.6.6 0 0 0 .58-.61z" data-name="&lt;Path&gt;"/><path fill="#d3d3d3" d="M152.88 185.51a.59.59 0 0 0-.57.62.55.55 0 0 0 .62.57c15.09-.68 33.18 6.57 48.37 19.41a.64.64 0 0 0 .39.14.61.61 0 0 0 .46-.22.6.6 0 0 0-.07-.84c-15.44-13.02-33.83-20.37-49.2-19.68z" data-name="&lt;Path&gt;"/><path fill="#d3d3d3" d="M152.17 188a.6.6 0 1 0-.1 1.19c14.62 1.14 30.57 10.08 42.69 23.9a.61.61 0 0 0 .85.05.59.59 0 0 0 .05-.84c-12.32-14.05-28.58-23.14-43.49-24.3z" data-name="&lt;Path&gt;"/><path fill="#e0e0e0" d="M132.34 188.94c-19.8 3.89-37.05 13.64-46.12 26.08a.59.59 0 0 0 .13.84.57.57 0 0 0 .35.12.61.61 0 0 0 .49-.25c8.9-12.2 25.87-21.78 45.38-25.62a.6.6 0 1 0-.23-1.17z" data-name="&lt;Path&gt;"/></g></g><path fill="none" d="M0 0h278.43v233.42H0z"/><path fill="#222" d="M71.73 159.97h139.2v125.65H71.73z"/><path fill="#fff" stroke="#fff" stroke-miterlimit="10" d="M143.07 228.88l59.68-68.91H83.39l59.68 68.91z"/><g fill="#fff"><rect width="278.43" height="66.42" rx="12" ry="12"/><path fill-rule="evenodd" d="M48.6 84.19L11.06 55.98l58.58-13.77L48.6 84.19z"/></g><g><path fill="#222" d="M143.26 35.82l-.85-2.38h-3.28l-.84 2.38h-1.47l3.2-8.6h1.53l3.2 8.6zm-1.22-3.58l-.8-2.33c-.06-.16-.14-.41-.25-.74s-.17-.58-.21-.74a14.58 14.58 0 0 1-.46 1.57l-.78 2.24z"/></g></svg>