<svg xmlns="http://www.w3.org/2000/svg" width="363.26" height="250.75" viewBox="0 0 363.26 250.75"><title>otter</title><g id="otter"><g id="_Group_" data-name="&lt;Group&gt;"><g id="_Group_2" data-name="&lt;Group&gt;"><path id="_Path_" data-name="&lt;Path&gt;" d="M70.75,243.22c-2.07-.32-4.45.24-5.6,2a4.86,4.86,0,0,0-.26,4.54,8.29,8.29,0,0,0,3.1,3.49,7.29,7.29,0,0,0,3,1.27,4,4,0,0,0,3.13-.79c1.18-1,1.5-2.64,1.67-4.16a8.39,8.39,0,0,0-.11-3.35C75,243.69,72.93,243.56,70.75,243.22Z" transform="translate(-18.37 -113.17)" style="fill:#d6d6d6"/><path id="_Path_2" data-name="&lt;Path&gt;" d="M73.15,244.27c-2.07-.32-4.44.24-5.6,2a4.86,4.86,0,0,0-.26,4.54,8.29,8.29,0,0,0,3.1,3.49,7.62,7.62,0,0,0,3,1.27,4.05,4.05,0,0,0,3.13-.8c1.18-1,1.5-2.63,1.67-4.15a8.44,8.44,0,0,0-.11-3.36C77.38,244.74,75.33,244.61,73.15,244.27Z" transform="translate(-18.37 -113.17)" style="fill:#9b9a9a"/><path id="_Compound_Path_" data-name="&lt;Compound Path&gt;" d="M71.68,255.14a4.48,4.48,0,0,1-.73,0,7.78,7.78,0,0,1-3.29-1.36A8.68,8.68,0,0,1,64.34,250a5.43,5.43,0,0,1,.31-5.11c1.42-2.14,4.22-2.55,6.19-2.24l.46.07c2.06.31,4.2.63,5,3.33a9.1,9.1,0,0,1,.14,3.58c-.18,1.63-.55,3.44-1.89,4.56A4.46,4.46,0,0,1,71.68,255.14Zm-2.06-11.4a4.64,4.64,0,0,0-4,1.79,4.24,4.24,0,0,0-.21,4,7.5,7.5,0,0,0,2.88,3.22,6.67,6.67,0,0,0,2.79,1.17,3.44,3.44,0,0,0,2.66-.65c1-.85,1.31-2.38,1.47-3.77a8,8,0,0,0-.1-3.12c-.55-1.87-1.82-2.14-4-2.47l-.46-.07h0A6.76,6.76,0,0,0,69.62,243.74Z" transform="translate(-18.37 -113.17)" style="fill:#e0e0e0"/></g><g id="_Group_3" data-name="&lt;Group&gt;"><path id="_Path_3" data-name="&lt;Path&gt;" d="M70.75,243.22a6.06,6.06,0,0,0-2.81.08.55.55,0,0,0-.32.7,1,1,0,0,0,.51.33,6.11,6.11,0,0,1,2.78,2.57c1,1.58,2.75,5.08,4.55,2a3.22,3.22,0,0,0-.39-4C74,243.58,72.27,243.46,70.75,243.22Z" transform="translate(-18.37 -113.17)" style="fill:#8f8897"/><path id="_Compound_Path_2" data-name="&lt;Compound Path&gt;" d="M73.93,250.71c-1.38,0-2.39-1.64-3.2-3-.11-.19-.22-.37-.33-.53a5.37,5.37,0,0,0-2.48-2.33,1.46,1.46,0,0,1-.82-.6,1,1,0,0,1-.07-.82,1.26,1.26,0,0,1,.66-.72,6,6,0,0,1,3.15-.12l.48.07c1.48.22,3.16.46,4.22,1.81a3.8,3.8,0,0,1,.44,4.65c-.59,1-1.27,1.54-2,1.55Zm-5.55-6.93a6.75,6.75,0,0,1,3,2.79l.34.55c.55.9,1.47,2.39,2.18,2.39h0c.3,0,.66-.34,1-.95a2.63,2.63,0,0,0-.34-3.3c-.77-1-2.13-1.18-3.45-1.37l-.49-.07h0A6,6,0,0,0,68.38,243.78Z" transform="translate(-18.37 -113.17)" style="fill:#bdb5c7"/></g></g><g id="_Group_4" data-name="&lt;Group&gt;"><g id="_Group_5" data-name="&lt;Group&gt;"><path id="_Path_4" data-name="&lt;Path&gt;" d="M106,243.22c2.07-.32,4.45.24,5.61,2a4.89,4.89,0,0,1,.26,4.54,8.25,8.25,0,0,1-3.11,3.49,7.29,7.29,0,0,1-3,1.27,4,4,0,0,1-3.12-.79c-1.18-1-1.51-2.64-1.68-4.16a8.57,8.57,0,0,1,.12-3.35C101.77,243.69,103.83,243.56,106,243.22Z" transform="translate(-18.37 -113.17)" style="fill:#c1c1c1"/><path id="_Path_5" data-name="&lt;Path&gt;" d="M104.43,244.38c2.06-.32,4.44.23,5.6,2a4.87,4.87,0,0,1,.26,4.53,8.17,8.17,0,0,1-3.1,3.49,7.38,7.38,0,0,1-3,1.27,4,4,0,0,1-3.12-.79c-1.18-1-1.51-2.64-1.68-4.16a8.57,8.57,0,0,1,.12-3.35C100.19,244.84,102.25,244.72,104.43,244.38Z" transform="translate(-18.37 -113.17)" style="fill:#9b9a9a"/><path id="_Compound_Path_3" data-name="&lt;Compound Path&gt;" d="M105.08,255.14a4.48,4.48,0,0,1-2.87-1c-1.34-1.12-1.7-2.93-1.89-4.56a9.1,9.1,0,0,1,.14-3.58c.79-2.7,2.93-3,5-3.33l.45-.07c2-.31,4.78.1,6.2,2.24a5.49,5.49,0,0,1,.31,5.11,8.81,8.81,0,0,1-3.32,3.75,7.78,7.78,0,0,1-3.29,1.36A4.56,4.56,0,0,1,105.08,255.14Zm2-11.4a6.72,6.72,0,0,0-1,.08h0l-.47.07c-2.19.33-3.47.6-4,2.47a8.21,8.21,0,0,0-.09,3.12c.15,1.39.45,2.92,1.46,3.77a3.46,3.46,0,0,0,2.66.65,6.67,6.67,0,0,0,2.79-1.17,7.6,7.6,0,0,0,2.89-3.22,4.3,4.3,0,0,0-.21-4A4.67,4.67,0,0,0,107.13,243.74Z" transform="translate(-18.37 -113.17)" style="fill:#d6d6d6"/></g><g id="_Group_6" data-name="&lt;Group&gt;"><path id="_Path_6" data-name="&lt;Path&gt;" d="M106,243.22a6.07,6.07,0,0,1,2.81.08.54.54,0,0,1,.31.7,1,1,0,0,1-.51.33,6,6,0,0,0-2.77,2.57c-1,1.58-2.75,5.08-4.55,2a3.23,3.23,0,0,1,.38-4C102.71,243.58,104.49,243.46,106,243.22Z" transform="translate(-18.37 -113.17)" style="fill:#8f8897"/><path id="_Compound_Path_4" data-name="&lt;Compound Path&gt;" d="M102.83,250.71h0c-.76,0-1.44-.53-2-1.55a3.8,3.8,0,0,1,.43-4.65c1.07-1.35,2.74-1.59,4.22-1.81l.48-.07a6,6,0,0,1,3.16.12,1.23,1.23,0,0,1,.65.73,1,1,0,0,1-.06.81,1.39,1.39,0,0,1-.79.58,5.41,5.41,0,0,0-2.52,2.35l-.33.53C105.21,249.07,104.2,250.71,102.83,250.71Zm4.69-7a8.59,8.59,0,0,0-1.42.13h0l-.5.07c-1.31.19-2.67.39-3.45,1.36a2.64,2.64,0,0,0-.34,3.31c.36.61.72.95,1,.95h0c.7,0,1.62-1.49,2.17-2.39l.34-.55a6.8,6.8,0,0,1,3-2.79A3.46,3.46,0,0,0,107.52,243.69Z" transform="translate(-18.37 -113.17)" style="fill:#bdb5c7"/></g></g><g id="_Group_7" data-name="&lt;Group&gt;"><path id="_Path_7" data-name="&lt;Path&gt;" d="M107.93,333.7a47.13,47.13,0,0,0,2.83-13.11c1-13.54-3.68-26.64-2.07-40.08.56-4.65,2.41-10.44-.28-14.78-1.47-2.38-4.15-3.69-6.69-4.87a22.13,22.13,0,0,0-6.4-2.22c-2.69-.34-5.38.31-8.08.56-2.47.22-5,.11-7.35.94-2.74,1-4.89,3.12-6.77,5.33a21.17,21.17,0,0,0-4.8,8.31c-.93,3.73.13,7.12.12,10.79,0,5.93-1.72,11.14-1,17.05q1.32,10,2.62,20c1.08,8.24,2.29,16.83,7,23.66l1-2.2c3,.24,4.29,4,7,5.36a7.78,7.78,0,0,0,4.09.56C99,348.23,104.82,341.76,107.93,333.7Z" transform="translate(-18.37 -113.17)" style="fill:#aaa4b2"/></g><g id="_Group_8" data-name="&lt;Group&gt;"><path id="_Path_8" data-name="&lt;Path&gt;" d="M90,303.49a25,25,0,0,0,2.69-6.88c.27.76.53,1.52.8,2.27l3.21-5.62.91,2.58a21.71,21.71,0,0,0,3-7.17,3.7,3.7,0,0,1,.68,2.23l3.1-6.78a6.85,6.85,0,0,1,.67,2.59,45.29,45.29,0,0,0,5.87-28.32c-1-6.73-4.68-11-10.27-14.71-5.22-3.44-19.71-4.19-25.26.53-3.5,3-9.49,8.06-9.62,16.76a85.79,85.79,0,0,0,.35,8.93c.34,3.92.76,8.49,3.31,11.67a5.7,5.7,0,0,1,1-1.86,7.91,7.91,0,0,0,1,4.54,2.53,2.53,0,0,0,2,1.51,12,12,0,0,1,.79-2.62,10.83,10.83,0,0,0,2.65,7.06,4,4,0,0,1,1.27-2.57,20.62,20.62,0,0,0,1.61,5.49,3.57,3.57,0,0,0,1,1.65c.14.12,1.79,1.34,1.86,1.2.27-.55.54-1.11.82-1.66a13.05,13.05,0,0,0,.59,4,4.33,4.33,0,0,0,2.74,2.76,5.56,5.56,0,0,1,1-1.87A11,11,0,0,0,90,303.49Z" transform="translate(-18.37 -113.17)" style="fill:#bdb5c7"/><path id="_Path_9" data-name="&lt;Path&gt;" d="M95.35,281.53a10.46,10.46,0,0,0,3.1.21c12.23-1,13.86-13.44,12.46-23.35-1-6.73-4.68-11-10.27-14.71-2.55-1.68-6.12-3.16-9.22-2.5-.37,1.9.31,3.83.84,5.71a36.78,36.78,0,0,1,1,14.58,34.83,34.83,0,0,1-1.7,7.26,16.42,16.42,0,0,0-.86,7.09,7.51,7.51,0,0,0,.67,2.92A5.69,5.69,0,0,0,95.35,281.53Z" transform="translate(-18.37 -113.17)" style="fill:#9d94a8;opacity:0.62"/><path id="_Compound_Path_5" data-name="&lt;Compound Path&gt;" d="M90,304.09a.61.61,0,0,1-.46-.21,11.39,11.39,0,0,1-2-3.28,4.67,4.67,0,0,0-.24.62.6.6,0,0,1-.72.41,4.9,4.9,0,0,1-3.15-3.13,9.33,9.33,0,0,1-.48-2.06.72.72,0,0,1-.28.13c-.63.13-2.34-1.35-2.36-1.36a3.85,3.85,0,0,1-1-1.68l-.17-.41a27.18,27.18,0,0,1-1.33-4,3.38,3.38,0,0,0-.3,1.13.6.6,0,0,1-1,.35A11.47,11.47,0,0,1,74,286a.61.61,0,0,1-.55.39,3,3,0,0,1-2.56-1.82,8.07,8.07,0,0,1-1-2.66.6.6,0,0,1-.41.28A.58.58,0,0,1,69,282c-2.69-3.35-3.11-8.14-3.45-12a86.34,86.34,0,0,1-.35-9c.14-9,6.2-14.14,9.83-17.22,5.93-5,20.75-4,26-.57,6.41,4.23,9.66,8.89,10.54,15.13a46,46,0,0,1-6,28.71.62.62,0,0,1-.66.27.61.61,0,0,1-.45-.55,7,7,0,0,0-.14-1l-2.49,5.43a.6.6,0,0,1-1.14-.27v-.18a22.43,22.43,0,0,1-2.58,5.47.61.61,0,0,1-.58.27A.6.6,0,0,1,97,296l-.48-1.35L94,299.18a.63.63,0,0,1-.57.3.61.61,0,0,1-.52-.4l-.15-.45a26,26,0,0,1-2.25,5.16.61.61,0,0,1-.47.3Zm-2.26-5.51.12,0a.59.59,0,0,1,.46.43,10.38,10.38,0,0,0,1.59,3.38,25.11,25.11,0,0,0,2.2-5.94.59.59,0,0,1,.55-.46.57.57,0,0,1,.6.4l.36,1L96.15,293a.59.59,0,0,1,.57-.3.58.58,0,0,1,.51.4l.5,1.39a21,21,0,0,0,2.27-5.91.6.6,0,0,1,1.07-.22,4,4,0,0,1,.4.69l2.35-5.14a.61.61,0,0,1,.54-.35.55.55,0,0,1,.55.34,9,9,0,0,1,.44,1.12,44.93,44.93,0,0,0,5-26.51c-.84-5.94-3.83-10.21-10-14.29-4.84-3.18-19.07-4.17-24.55.48-3.46,3-9.27,7.88-9.4,16.32a83.92,83.92,0,0,0,.35,8.87c.29,3.37.65,7.48,2.58,10.5a5.84,5.84,0,0,1,.68-1,.6.6,0,0,1,1.06.43,7.29,7.29,0,0,0,.9,4.19,2.83,2.83,0,0,0,1,1.11,12.7,12.7,0,0,1,.71-2.16.58.58,0,0,1,.67-.35.6.6,0,0,1,.48.59,10.24,10.24,0,0,0,1.77,5.71,4.36,4.36,0,0,1,1.15-1.66.58.58,0,0,1,.61-.12.6.6,0,0,1,.39.5,19.07,19.07,0,0,0,1.48,5.11l.16.42a2.77,2.77,0,0,0,.75,1.23c.13.11.74.55,1.17.84l.56-1.13a.6.6,0,0,1,1.14.24,12.24,12.24,0,0,0,.55,3.79,4,4,0,0,0,1.82,2.2,6.51,6.51,0,0,1,.86-1.46A.61.61,0,0,1,87.71,298.58Z" transform="translate(-18.37 -113.17)" style="fill:#8f8897"/></g><g id="_Group_9" data-name="&lt;Group&gt;"><path id="_Path_10" data-name="&lt;Path&gt;" d="M89.16,306.18c3.07.23,5.33-1.69,7.58-3.56.1.52.91.3,1.27-.09a5.5,5.5,0,0,0,1.44-4.17c.2.55,1,.09,1.33-.4l3.06-4.77c0,.37.5.55.82.36a1.52,1.52,0,0,0,.54-.93l.75-2.57a6,6,0,0,0,1.41-4.42c.7.29,1.24-.65,1.41-1.39,1.3-5.57,1.67-11.26,2.29-16.93a17.51,17.51,0,0,0,0-6c-.81-3.29-3.51-5.46-6.42-3.1a5.81,5.81,0,0,1-5.84.77c-.73-.33-1.39-.8-2.13-1.08a8.77,8.77,0,0,0-2.93-.41,79.83,79.83,0,0,0-10.26.17c-2.88.28-5.26,1.49-8.23,1.43a3.53,3.53,0,0,1-1.77-.34c-.47-.27-.8-.74-1.28-1a3,3,0,0,0-.9-.22c-1.78-.25-3.88-.39-5.08,1-1.75,2-1.85,7-1.64,9.45.55,6.27,2.19,12.4,2.72,18.71a3.21,3.21,0,0,0,1.36-.78,9.8,9.8,0,0,0,1.4,5.3c-.06-.25.29-.44.52-.34a1.05,1.05,0,0,1,.48.59c1,2.11,1.93,4.22,2.9,6.34-.3-.66,1.58.38,1.65.44a13.33,13.33,0,0,1,2,2.58,1.28,1.28,0,0,0,.29.32c.32.24.77.18,1.14.32a2.24,2.24,0,0,1,.66.44l3.45,3c-.11-.32.32-.61.65-.53a2.07,2.07,0,0,1,.81.61c.94.89,3,1.08,4.17,1.22Z" transform="translate(-18.37 -113.17)" style="fill:#d6d6d6"/><path id="_Path_11" data-name="&lt;Path&gt;" d="M89.63,305.65c1.16,1,6.22-2.29,7.11-3,.1.52.91.3,1.27-.09a5.5,5.5,0,0,0,1.44-4.17c.2.55,1,.09,1.33-.4l3.06-4.77c0,.37.5.55.82.36a1.52,1.52,0,0,0,.54-.93l.75-2.57a6,6,0,0,0,1.41-4.42c.7.29,1.24-.65,1.41-1.39,1.3-5.57,1.67-11.26,2.29-16.93a17.51,17.51,0,0,0,0-6c-.81-3.29-3.51-5.46-6.42-3.1a5.81,5.81,0,0,1-5.84.77c-2.57-1.14-4.56-1.69-6.61.95a12.87,12.87,0,0,0-1.87,3.94,20,20,0,0,0-1.33,6.67,25.6,25.6,0,0,0,1.31,6.31c2.47,8.72,3.5,18.4-.38,26.6C89.28,304.69,89.27,305.37,89.63,305.65Z" transform="translate(-18.37 -113.17)" style="fill:#7c7684;opacity:0.39"/><path id="_Path_12" data-name="&lt;Path&gt;" d="M95.31,294a21.18,21.18,0,0,0,5-3.59,40.43,40.43,0,0,0,8.64-12c1.57-3.46,2-7.62.3-11a14.43,14.43,0,0,0-5.9-5.71,49.39,49.39,0,0,0-6.71-3.78,8.77,8.77,0,0,0-2.93-.41c-2.6-.08-7.66-1-10,.26-1,.53-1.75,2.17-2.41,3-1.58,2.07-3.36,4.1-4.78,6.29-1.31,2-2,3.71-4.13,5.09-1.79,1.16-3.82,2.23-4.74,4.16a2.73,2.73,0,0,0-.31,1.48,3.94,3.94,0,0,0,.7,1.6c2.57,4,5.17,8.06,8.71,11.24s8.17,5.42,12.91,5.06A15,15,0,0,0,95.31,294Z" transform="translate(-18.37 -113.17)" style="fill:#8f8897;opacity:0.38"/><path id="_Path_13" data-name="&lt;Path&gt;" d="M86.1,280.65a29.38,29.38,0,0,0-4.44.18,5.36,5.36,0,0,1-2.07.07c-1.51-.39-2.5-2.33-4-2.13l-.53.74c-.14.2-3.69-3.31-4.88-2.59-2.36,1.44,1,4.51,2.14,5.37l5.48,4.17a28.69,28.69,0,0,0,4.35,2.91c6.19,3.1,13.39.73,18.42-3.5A32.94,32.94,0,0,0,107,278a2.88,2.88,0,0,0,.54-1.29c.22-2.67-4.74,1.31-5.66,1.54a13.89,13.89,0,0,0-1.83.42,9.81,9.81,0,0,0-1.44.89,11.66,11.66,0,0,1-4.47,1.33,11.68,11.68,0,0,1-1.31.15,10,10,0,0,1-1.45,0C89.7,280.85,87.89,280.7,86.1,280.65Z" transform="translate(-18.37 -113.17)" style="fill:#8f8897;opacity:0.38"/><path id="_Compound_Path_6" data-name="&lt;Compound Path&gt;" d="M89.67,306.8l-.55,0h0l-.45,0-.14,0c-1.32-.15-3.33-.37-4.37-1.36l-.15-.15a1.81,1.81,0,0,0-.31-.27.54.54,0,0,1-.25.39.59.59,0,0,1-.73,0l-3.45-3a1.77,1.77,0,0,0-.48-.34,2.24,2.24,0,0,0-.34-.07,2,2,0,0,1-1-.32,2.43,2.43,0,0,1-.42-.46l-.52-.76a7.61,7.61,0,0,0-1.37-1.7,10,10,0,0,0-.91-.44l-.12.07a.59.59,0,0,1-.79-.29l-2.91-6.34,0-.07a.62.62,0,0,1-.19.12.59.59,0,0,1-.74-.24A10.49,10.49,0,0,1,68,287a3.41,3.41,0,0,1-.63.24.59.59,0,0,1-.5-.08.61.61,0,0,1-.26-.45c-.27-3.16-.82-6.34-1.36-9.41s-1.08-6.17-1.35-9.3c0-.29-.6-7.2,1.78-9.9,1.35-1.52,3.6-1.44,5.62-1.15a3.44,3.44,0,0,1,1.07.27,4,4,0,0,1,.84.62,3.29,3.29,0,0,0,.48.39,3.13,3.13,0,0,0,1.48.25,17,17,0,0,0,4.56-.71,23.17,23.17,0,0,1,3.6-.72,81.7,81.7,0,0,1,10.34-.17,9.29,9.29,0,0,1,3.12.45,8.34,8.34,0,0,1,1.27.63c.29.16.58.32.89.46a5.16,5.16,0,0,0,5.22-.69,4.06,4.06,0,0,1,4-.94,5.82,5.82,0,0,1,3.4,4.37,18,18,0,0,1,.06,6.21c-.13,1.21-.25,2.42-.37,3.63a104.75,104.75,0,0,1-1.92,13.37,2.7,2.7,0,0,1-1.16,1.76,1.45,1.45,0,0,1-.22.09,6.58,6.58,0,0,1-1.49,4.11l-.72,2.45a2.07,2.07,0,0,1-.8,1.27,1.24,1.24,0,0,1-1,.09l-2.65,4.13a2.15,2.15,0,0,1-1.24.9,6,6,0,0,1-1.6,3.76,1.74,1.74,0,0,1-1.62.54l-.13-.05C94.65,305.13,92.5,306.8,89.67,306.8Zm-.46-1.22c2.74.21,4.82-1.5,7-3.3l.14-.12a.56.56,0,0,1,.58-.1.52.52,0,0,1,.31.25.76.76,0,0,0,.32-.19,4.85,4.85,0,0,0,1.28-3.7A.6.6,0,0,1,99.9,298a1.09,1.09,0,0,0,.38-.34l3-4.76a.62.62,0,0,1,.7-.25.6.6,0,0,1,.37.36,1.56,1.56,0,0,0,.22-.53l.76-2.57a.53.53,0,0,1,.12-.22,5.45,5.45,0,0,0,1.26-4,.6.6,0,0,1,.82-.61,1.43,1.43,0,0,0,.61-1,104.81,104.81,0,0,0,1.9-13.21c.12-1.22.24-2.43.37-3.64a16.86,16.86,0,0,0,0-5.8,4.74,4.74,0,0,0-2.62-3.51,2.94,2.94,0,0,0-2.84.73,6.39,6.39,0,0,1-6.47.85c-.34-.15-.66-.33-1-.51a8.78,8.78,0,0,0-1.11-.55,8.61,8.61,0,0,0-2.74-.38,83.13,83.13,0,0,0-10.19.17,23.13,23.13,0,0,0-3.41.69,17.62,17.62,0,0,1-4.88.75,3.26,3.26,0,0,1-2.75-.95,2.86,2.86,0,0,0-.55-.43,2.46,2.46,0,0,0-.72-.16c-1.79-.26-3.58-.34-4.55.75-1.52,1.73-1.72,6.33-1.49,9,.27,3.08.81,6.19,1.34,9.2.5,2.83,1,5.75,1.3,8.69a2.65,2.65,0,0,0,.42-.33.58.58,0,0,1,.66-.11.6.6,0,0,1,.36.56,9.27,9.27,0,0,0,1,4.33,1.11,1.11,0,0,1,.6.05,1.66,1.66,0,0,1,.78.9l2.66,5.8a5.35,5.35,0,0,1,1.73.76,8.61,8.61,0,0,1,1.62,2l.49.72a.81.81,0,0,0,.17.19,1,1,0,0,0,.4.11,2.34,2.34,0,0,1,.59.13,2.78,2.78,0,0,1,.84.55l2.9,2.48a1.22,1.22,0,0,1,1-.18,2.05,2.05,0,0,1,.94.63l.13.12c.76.72,2.59.92,3.68,1h.15l.4,0Z" transform="translate(-18.37 -113.17)" style="fill:#e0e0e0"/></g><g id="_Group_10" data-name="&lt;Group&gt;"><path id="_Path_14" data-name="&lt;Path&gt;" d="M71.42,320.1a174.37,174.37,0,0,0,12.17,21.29c2,3,4.15,6.55,2.79,9.85L82,347a13.08,13.08,0,0,1,3.68,6.29,7.26,7.26,0,0,1-7.1-3.23q2.23,2.11,4.53,4.16a6.71,6.71,0,0,1-8.11-2,11.53,11.53,0,0,0,4.45,2.93c-2.12.81-4.41-.46-6.32-1.68a38,38,0,0,1-7.37-5.58,35.86,35.86,0,0,1-4.86-7,45.39,45.39,0,0,1-3.65-7.4c-3.57-10.07-.1-21.72,6.9-29.78a1.76,1.76,0,0,1,1-.69c2.72-.38,3.56,4.74,3.92,6.52C69.74,313.14,69.8,316.73,71.42,320.1Z" transform="translate(-18.37 -113.17)" style="fill:#a9a8b6"/><path id="_Path_15" data-name="&lt;Path&gt;" d="M59.06,327.91A26.76,26.76,0,0,0,65,334.73a16.57,16.57,0,0,0,10.77,3.85,8.56,8.56,0,0,1,3.88.24,10.79,10.79,0,0,1,5,4.19,13,13,0,0,1,1.89,4.07,27.54,27.54,0,0,1-.14,4.16L82,347a13.08,13.08,0,0,1,3.68,6.29,7.26,7.26,0,0,1-7.1-3.23q2.23,2.11,4.53,4.16a6.71,6.71,0,0,1-8.11-2,11.53,11.53,0,0,0,4.45,2.93c-2.12.81-4.41-.46-6.32-1.68a38,38,0,0,1-7.37-5.58,35.86,35.86,0,0,1-4.86-7,45.39,45.39,0,0,1-3.65-7.4c-.42-1.2-2.81-8.43-1.24-9.08.73-.31,1.39.52,1.77,1.21S58.59,327.17,59.06,327.91Z" transform="translate(-18.37 -113.17)" style="fill:#8f8897;opacity:0.46"/><path id="_Path_16" data-name="&lt;Path&gt;" d="M60.71,340a1.64,1.64,0,0,1,1.13.36,66.7,66.7,0,0,1,6.28,5.49A16.66,16.66,0,0,0,75.25,350c2.72.62,5.88-.05,7.59-2.25,1-1.35,3-2.94,3.7-.45.21.72-.57,3.55-.16,3.95L82,347a13.08,13.08,0,0,1,3.68,6.29,7.26,7.26,0,0,1-7.1-3.23q2.23,2.11,4.53,4.16a6.71,6.71,0,0,1-8.11-2,11.53,11.53,0,0,0,4.45,2.93c-2.12.81-4.41-.46-6.32-1.68a38,38,0,0,1-7.37-5.58,31.87,31.87,0,0,1-3.88-5.33c-.16-.26-1.51-1.64-1.53-1.73C60.23,340.3,60.41,340,60.71,340Z" transform="translate(-18.37 -113.17)" style="fill:#8f8897;opacity:0.46"/><path id="_Compound_Path_7" data-name="&lt;Compound Path&gt;" d="M78,356a10.41,10.41,0,0,1-5.24-2,38.79,38.79,0,0,1-7.47-5.68,35.82,35.82,0,0,1-5-7.11,45.76,45.76,0,0,1-3.69-7.5c-3.42-9.62-.66-21.54,7-30.37a2.24,2.24,0,0,1,1.35-.89c3.14-.45,4.11,4.53,4.53,6.66l.06.33c.22,1.07.38,2.15.53,3.19A24.59,24.59,0,0,0,72,319.84h0a174,174,0,0,0,12.13,21.22c2.13,3.19,4.29,6.89,2.85,10.41a.62.62,0,0,1-.43.36.66.66,0,0,1-.54-.15l-.36-.35a12.51,12.51,0,0,1,.61,1.85.55.55,0,0,1-.08.48.61.61,0,0,1-.4.26,7.51,7.51,0,0,1-2.17,0,.6.6,0,0,1,.09.41.59.59,0,0,1-.33.46,6.8,6.8,0,0,1-3.4.67.57.57,0,0,1-.31.26A4.34,4.34,0,0,1,78,356ZM65.36,303.62l-.18,0c-.2,0-.42.26-.61.49-7.4,8.5-10.06,20-6.79,29.18a44.54,44.54,0,0,0,3.6,7.3,35.34,35.34,0,0,0,4.78,6.89A37.69,37.69,0,0,0,73.41,353,12.3,12.3,0,0,0,77,354.7a7,7,0,0,1-2.52-2.1.6.6,0,0,1,.92-.77,11.12,11.12,0,0,0,2.37,1.9,6.27,6.27,0,0,0,4.18.32L80.75,353A7.59,7.59,0,0,1,78,350.42a.6.6,0,0,1,.92-.75L81.47,352a6.61,6.61,0,0,0,3.4.79,12.7,12.7,0,0,0-3.31-5.32h0a.6.6,0,0,1,0-.85.61.61,0,0,1,.85,0l3.72,3.54c.56-2.75-1.24-5.76-3-8.41a175.64,175.64,0,0,1-12.21-21.37h0A25.6,25.6,0,0,1,69,312.8c-.16-1-.31-2.09-.52-3.12l-.07-.34C68.05,307.76,67.24,303.62,65.36,303.62Z" transform="translate(-18.37 -113.17)" style="fill:#817c89"/></g><g id="_Group_11" data-name="&lt;Group&gt;"><path id="_Path_17" data-name="&lt;Path&gt;" d="M105.56,319A172.33,172.33,0,0,1,96,341.59c-1.62,3.18-3.35,7-1.62,10.11l3.9-4.69a13.23,13.23,0,0,0-2.92,6.68,7.26,7.26,0,0,0,6.68-4q-2,2.37-4,4.66a6.72,6.72,0,0,0,7.82-2.95,11.66,11.66,0,0,1-4.08,3.43c2.2.56,4.33-1,6.08-2.41a38.1,38.1,0,0,0,6.66-6.4,35.77,35.77,0,0,0,4-7.53,45,45,0,0,0,2.75-7.78c2.37-10.41-2.43-21.57-10.34-28.76a1.75,1.75,0,0,0-1.05-.57c-2.75-.06-3,5.13-3.13,6.93C106.42,311.92,106.78,315.49,105.56,319Z" transform="translate(-18.37 -113.17)" style="fill:#a9a8b6"/><path id="_Path_18" data-name="&lt;Path&gt;" d="M111.26,319.44A90.34,90.34,0,0,1,110,329a30.47,30.47,0,0,1-3.26,9.89,13.13,13.13,0,0,1-8,6.36,16.74,16.74,0,0,0-3.38.85c-2.25,1.06-2.15,3.71-1.09,5.61l3.9-4.69a13.23,13.23,0,0,0-2.92,6.68,7.26,7.26,0,0,0,6.68-4q-2,2.37-4,4.66a6.72,6.72,0,0,0,7.82-2.95,11.66,11.66,0,0,1-4.08,3.43c2.2.56,4.33-1,6.08-2.41a38.1,38.1,0,0,0,6.66-6.4,35.77,35.77,0,0,0,4-7.53,45,45,0,0,0,2.75-7.78c1.78-7.79-1-24.5-10.18-26.67A89.46,89.46,0,0,1,111.26,319.44Z" transform="translate(-18.37 -113.17)" style="fill:#8f8897;opacity:0.46"/><path id="_Path_19" data-name="&lt;Path&gt;" d="M119,319a36.87,36.87,0,0,1-8.79,25.84,16.51,16.51,0,0,1-3.12,2.9c-3.46,2.33-9.35,2.31-11.82,5.88,3.24.37,4.89-1.77,6.72-4q-2,2.37-4,4.66a6.72,6.72,0,0,0,7.82-2.95,11.66,11.66,0,0,1-4.08,3.43c2.2.56,4.33-1,6.08-2.41a38.1,38.1,0,0,0,6.66-6.4,35.77,35.77,0,0,0,4-7.53,45,45,0,0,0,2.75-7.78,27.22,27.22,0,0,0,.36-8.45c-.08-.87,0-4-.72-4.57-.17-.14-2.07-1.09-2-.27C119,317.92,119,318.45,119,319Z" transform="translate(-18.37 -113.17)" style="fill:#8f8897;opacity:0.46"/><path id="_Compound_Path_8" data-name="&lt;Compound Path&gt;" d="M102.69,355.51a4.15,4.15,0,0,1-1.1-.14.57.57,0,0,1-.34-.22,6.87,6.87,0,0,1-3.45-.27.63.63,0,0,1-.39-.42.64.64,0,0,1,0-.41,7.33,7.33,0,0,1-2.14.24.66.66,0,0,1-.44-.21.57.57,0,0,1-.13-.47,12.32,12.32,0,0,1,.39-1.9l-.32.38a.6.6,0,0,1-1-.09c-1.85-3.33-.14-7.26,1.61-10.68A174.47,174.47,0,0,0,105,318.83a24.66,24.66,0,0,0,1-7.38c0-1.05.06-2.14.15-3.23l0-.33c.17-2.16.57-7.16,3.72-7.15a2.35,2.35,0,0,1,1.45.73c8.65,7.87,12.78,19.38,10.52,29.34a46.44,46.44,0,0,1-2.79,7.88,36.06,36.06,0,0,1-4.08,7.64,38.92,38.92,0,0,1-6.76,6.52C106.48,354.25,104.64,355.51,102.69,355.51ZM99.09,354a6.21,6.21,0,0,0,4.12-.81,11.47,11.47,0,0,0,2.13-2.16.6.6,0,0,1,.8-.14.58.58,0,0,1,.2.79,6.9,6.9,0,0,1-2.26,2.39,12.22,12.22,0,0,0,3.36-2.12,38.37,38.37,0,0,0,6.56-6.3,35.56,35.56,0,0,0,3.94-7.4,44.77,44.77,0,0,0,2.72-7.68c2.17-9.54-1.82-20.6-10.16-28.18a1.4,1.4,0,0,0-.67-.42h0c-2,0-2.33,4.39-2.46,6l0,.34c-.08,1.06-.11,2.13-.14,3.17a25.93,25.93,0,0,1-1,7.73h0a175.5,175.5,0,0,1-9.62,22.65c-1.45,2.84-2.89,6-2,8.71l3.28-3.95h0a.6.6,0,0,1,.92.76h0A12.72,12.72,0,0,0,96,353.08a6.73,6.73,0,0,0,3.28-1.19c.75-.86,1.49-1.74,2.23-2.62a.58.58,0,0,1,.78-.12.59.59,0,0,1,.22.76,7.63,7.63,0,0,1-2.4,2.86Z" transform="translate(-18.37 -113.17)" style="fill:#817c89"/></g><g id="_Group_12" data-name="&lt;Group&gt;"><g id="_Group_13" data-name="&lt;Group&gt;"><path id="_Path_20" data-name="&lt;Path&gt;" d="M94.5,272.38c-2.18-.72-4.18-2.86-6-4-2,1.08-2.44,2.92-5.29,3.92-2,.72.09,4.15,5.77,3.89S96.54,273.06,94.5,272.38Z" transform="translate(-18.37 -113.17)" style="fill:#c9c9c9"/><path id="_Path_21" data-name="&lt;Path&gt;" d="M91.13,271.76a4.5,4.5,0,0,0-2.4.4,11,11,0,0,1-2.67,1.29c-.65.11-3-.59-3.36,0s.65,1.24,1,1.49A8.66,8.66,0,0,0,89,276.18a9.78,9.78,0,0,0,5.28-1.43c.78-.56,1.72-1.93.17-2.25A32.72,32.72,0,0,0,91.13,271.76Z" transform="translate(-18.37 -113.17)" style="fill:#8f8897;opacity:0.38"/><path id="_Compound_Path_9" data-name="&lt;Compound Path&gt;" d="M88.45,276.8c-3.7,0-6.21-1.6-6.53-3.23a1.58,1.58,0,0,1,1.13-1.85,7.09,7.09,0,0,0,3-2.12,8.44,8.44,0,0,1,2.16-1.76.61.61,0,0,1,.61,0c.63.41,1.27.92,1.94,1.46a13.66,13.66,0,0,0,3.88,2.48h0a1.58,1.58,0,0,1,1.22,1.7c-.21,1.48-2.63,3.08-6.87,3.27Zm.07-7.72A7.86,7.86,0,0,0,87,270.44a8.3,8.3,0,0,1-3.51,2.41c-.41.15-.37.38-.35.49.17.87,2.08,2.4,5.89,2.25s5.63-1.55,5.73-2.24c0-.06,0-.25-.41-.4h0a14.73,14.73,0,0,1-4.25-2.68C89.52,269.84,89,269.42,88.52,269.08Z" transform="translate(-18.37 -113.17)" style="fill:#8f8897"/></g><g id="_Group_14" data-name="&lt;Group&gt;"><path id="_Path_22" data-name="&lt;Path&gt;" d="M94,272.44a11.4,11.4,0,0,0,2.17.27c4.43.15,6.14-2.57,5.57-6.58s-2.74-6.44-6-8.6c-3.06-2-11.52-2.45-14.77.31-3.09,2.62-7.24,7.45-5.33,11.88,1,2.31,3.74,3.49,6.24,3.27a12.5,12.5,0,0,0,6.68-3.19A12.25,12.25,0,0,0,94,272.44Z" transform="translate(-18.37 -113.17)" style="fill:#d6d6d6"/><path id="_Path_23" data-name="&lt;Path&gt;" d="M94,272.44a11.4,11.4,0,0,0,2.17.27c2.21.08,4.45-.67,5.3-2.88a7.16,7.16,0,0,0,.3-3.47c-.15-1.2-.15-3.08-.93-4.07s-2.31-1-3.6-1c-2.83.08-5.66-.15-8.46.16a10.49,10.49,0,0,0-2.89.67,11.52,11.52,0,0,0-2.41,1.43c-.82.59-1.63,1.22-2.4,1.88-1,.82-2.14,1.74-3.32,1.34a5.81,5.81,0,0,1-1.19-.72c-.8-.51-2-.44-1.82.69,0,.37.35.79.43,1.17a9.8,9.8,0,0,0,.46,1.77c1,2.31,3.74,3.49,6.24,3.27a12.5,12.5,0,0,0,6.68-3.19A12.25,12.25,0,0,0,94,272.44Z" transform="translate(-18.37 -113.17)" style="fill:#8f8897;opacity:0.38"/><path id="_Path_24" data-name="&lt;Path&gt;" d="M94,272.5a15.15,15.15,0,0,0,2.18.21c2.21.08,4.45-.67,5.3-2.88a7.16,7.16,0,0,0,.3-3.47c-.15-1.2-.15-3.08-.93-4.07-2.57-3.23-7.18,0-8.41,2.6-.5,1-1,2.06-1.48,3.09C89.59,270.89,91.66,272.06,94,272.5Z" transform="translate(-18.37 -113.17)" style="fill:#7c7684;opacity:0.39"/><path id="_Compound_Path_10" data-name="&lt;Compound Path&gt;" d="M81.28,273.62A6.58,6.58,0,0,1,75.13,270c-2.25-5.23,3.09-10.54,5.49-12.58,3.54-3,12.37-2.4,15.49-.35,3.81,2.52,5.74,5.29,6.27,9,.33,2.36-.1,4.28-1.24,5.55a6.07,6.07,0,0,1-5,1.72,12.57,12.57,0,0,1-2.28-.28h0a13.22,13.22,0,0,1-5.31-2.45,12.57,12.57,0,0,1-6.63,3Q81.63,273.62,81.28,273.62Zm7-17.14c-2.68,0-5.37.53-6.88,1.82-1.72,1.45-7.16,6.56-5.17,11.19.93,2.15,3.52,3.09,5.64,2.91a11.73,11.73,0,0,0,6.35-3.06.6.6,0,0,1,.79,0,11.56,11.56,0,0,0,5.16,2.51h0a12,12,0,0,0,2.06.26,4.94,4.94,0,0,0,4-1.33,5.59,5.59,0,0,0,.94-4.58c-.48-3.39-2.2-5.84-5.74-8.18C94,257.09,91.15,256.48,88.28,256.48Z" transform="translate(-18.37 -113.17)" style="fill:#8f8897"/></g><g id="_Group_15" data-name="&lt;Group&gt;"><path id="_Path_25" data-name="&lt;Path&gt;" d="M96.3,263.46a7.83,7.83,0,0,0,2.89.21,1.63,1.63,0,0,0,.72-.21c2.16-1.48-3.2-5.31-4.13-5.93-3.06-2-11.52-2.45-14.77.31-1.73,1.47-4.32,3.61-4.39,6.07a1,1,0,0,0,.08.52c.23.44.86.42,1.35.31,2.55-.54,5-1.65,7.46-2.39a12,12,0,0,1,7.7-.17c.74.29,1.44.69,2.18,1A8.78,8.78,0,0,0,96.3,263.46Z" transform="translate(-18.37 -113.17)" style="fill:#eaeaea"/><path id="_Path_26" data-name="&lt;Path&gt;" d="M96.3,263.46a7.83,7.83,0,0,0,2.89.21,1.63,1.63,0,0,0,.72-.21c2.2-1.5-3.88-6.17-5-6.93-2-1.4-2.06-.51-3.62,1-.73.72-3,1.73-2.57,3.05s3.41,1.17,4.47,1.58c.74.29,1.44.69,2.18,1A8.78,8.78,0,0,0,96.3,263.46Z" transform="translate(-18.37 -113.17)" style="fill:#8f8897;opacity:0.38"/><path id="_Compound_Path_11" data-name="&lt;Compound Path&gt;" d="M77.51,265.41a1.4,1.4,0,0,1-1.34-.7,1.6,1.6,0,0,1-.15-.82c.08-2.67,2.73-4.92,4.49-6.41l.11-.1c3.54-3,12.37-2.4,15.49-.35.5.33,4.89,3.29,4.91,5.51a1.63,1.63,0,0,1-.77,1.41,2.07,2.07,0,0,1-1,.32,8.59,8.59,0,0,1-3.11-.23h0a8,8,0,0,1-1-.32c-.38-.14-.74-.32-1.11-.49s-.7-.35-1.07-.49c-2-.76-4.35-.7-7.31.18-1,.29-2,.64-2.9,1a35.24,35.24,0,0,1-4.61,1.43A3.46,3.46,0,0,1,77.51,265.41Zm10.77-8.93c-2.68,0-5.37.53-6.88,1.82l-.12.09c-1.59,1.35-4,3.4-4.06,5.54a.72.72,0,0,0,0,.22s.23.1.69,0a36.35,36.35,0,0,0,4.45-1.38c1-.35,2-.71,3-1,3.22-1,5.87-1,8.08-.15.4.16.78.34,1.17.53s.67.32,1,.46a5.88,5.88,0,0,0,.84.27h0a7.34,7.34,0,0,0,2.68.2,1,1,0,0,0,.44-.12.45.45,0,0,0,.25-.41c0-1.12-2.62-3.36-4.37-4.52C94,257.09,91.15,256.48,88.28,256.48Z" transform="translate(-18.37 -113.17)" style="fill:#e0e0e0"/></g><g id="_Group_16" data-name="&lt;Group&gt;"><path id="_Path_27" data-name="&lt;Path&gt;" d="M106.12,256.27a3.21,3.21,0,0,0,.57-.65,2.56,2.56,0,0,0,0-2.42,6.67,6.67,0,0,0-1.63-1.92,7.25,7.25,0,0,0-1.78-1.25c-2.18-1-6.52,3.28-6.41,5.55a3.73,3.73,0,0,0,1.26,2.55,4.44,4.44,0,0,0,5.1.54,8.19,8.19,0,0,0,1.29-1l1.4-1.22Z" transform="translate(-18.37 -113.17)" style="fill:#afafaf"/><path id="_Compound_Path_12" data-name="&lt;Compound Path&gt;" d="M101.05,259.84a5,5,0,0,1-3.35-1.26,4.37,4.37,0,0,1-1.45-3c-.08-1.72,1.77-4.05,3.61-5.31,1.39-1,2.69-1.24,3.64-.82a7.8,7.8,0,0,1,1.94,1.36,7,7,0,0,1,1.76,2.09,3.13,3.13,0,0,1,0,3,3.53,3.53,0,0,1-.68.78h0l-1.63,1.42a8.64,8.64,0,0,1-1.38,1.05A4.82,4.82,0,0,1,101.05,259.84Zm1.5-9.35a3.89,3.89,0,0,0-2,.8c-1.7,1.16-3.14,3.15-3.09,4.26a3.15,3.15,0,0,0,1.06,2.14,3.87,3.87,0,0,0,4.4.46,7.61,7.61,0,0,0,1.19-.92l1.62-1.41a2.29,2.29,0,0,0,.46-.52,2,2,0,0,0-.05-1.84,8.74,8.74,0,0,0-3.12-2.88A1.08,1.08,0,0,0,102.55,250.49Z" transform="translate(-18.37 -113.17)" style="fill:#8f8897"/></g><g id="_Group_17" data-name="&lt;Group&gt;"><g id="_Group_18" data-name="&lt;Group&gt;"><path id="_Path_28" data-name="&lt;Path&gt;" d="M98.65,258.76a4,4,0,0,0,4.73.39c2-1.22,2.93-3.84,1.27-5.72A11,11,0,0,0,103,252a3,3,0,0,0-.61-.38c-1.93-.82-4.14,1.54-4.93,3.05a2.23,2.23,0,0,0-.15,1.66A4.24,4.24,0,0,0,98.65,258.76Z" transform="translate(-18.37 -113.17)" style="fill:#3a0400"/><path id="_Compound_Path_13" data-name="&lt;Compound Path&gt;" d="M101.24,260.35a4.48,4.48,0,0,1-3-1.14,4.88,4.88,0,0,1-1.54-2.79,2.78,2.78,0,0,1,.21-2.05c1-1.89,3.48-4.26,5.69-3.33a3.65,3.65,0,0,1,.73.46A11.1,11.1,0,0,1,105.1,253a3.94,3.94,0,0,1,1,3.25,5,5,0,0,1-2.38,3.38A4.72,4.72,0,0,1,101.24,260.35Zm.3-8.32c-1.42,0-3,1.8-3.56,2.9a1.67,1.67,0,0,0-.09,1.27,3.6,3.6,0,0,0,1.16,2.11h0a3.36,3.36,0,0,0,4,.32,3.7,3.7,0,0,0,1.81-2.54,2.68,2.68,0,0,0-.68-2.26,10,10,0,0,0-1.57-1.37,2.55,2.55,0,0,0-.48-.31A1.62,1.62,0,0,0,101.54,252Z" transform="translate(-18.37 -113.17)" style="fill:#231f20"/></g><g id="_Group_19" data-name="&lt;Group&gt;"><path id="_Path_29" data-name="&lt;Path&gt;" d="M104.1,255.9a2.76,2.76,0,1,1-2.13-3.27A2.77,2.77,0,0,1,104.1,255.9Z" transform="translate(-18.37 -113.17)"/><path id="_Compound_Path_14" data-name="&lt;Compound Path&gt;" d="M101.39,258.7a3.25,3.25,0,0,1-.69-.08,3.36,3.36,0,1,1,4-2.59h0A3.38,3.38,0,0,1,101.39,258.7Zm0-5.54a2.18,2.18,0,1,0,.44.05A2.28,2.28,0,0,0,101.4,253.16Z" transform="translate(-18.37 -113.17)" style="fill:#0f0f0f"/></g><g id="_Group_20" data-name="&lt;Group&gt;"><path id="_Path_30" data-name="&lt;Path&gt;" d="M100.33,254.35a.76.76,0,1,1-.55-.92A.76.76,0,0,1,100.33,254.35Z" transform="translate(-18.37 -113.17)" style="fill:#fff"/></g></g><g id="_Group_21" data-name="&lt;Group&gt;"><path id="_Path_31" data-name="&lt;Path&gt;" d="M71.4,256.38a3.31,3.31,0,0,1-.58-.66,2.54,2.54,0,0,1,0-2.42,6.57,6.57,0,0,1,1.62-1.91,7.16,7.16,0,0,1,1.79-1.26c2.17-1,6.51,3.29,6.4,5.55a3.74,3.74,0,0,1-1.25,2.56,4.48,4.48,0,0,1-5.11.54,8.91,8.91,0,0,1-1.28-1l-1.4-1.22Z" transform="translate(-18.37 -113.17)" style="fill:#afafaf"/><path id="_Compound_Path_15" data-name="&lt;Compound Path&gt;" d="M76.46,260a4.85,4.85,0,0,1-2.46-.66,8.93,8.93,0,0,1-1.38-1.05L71,256.82h0a3.59,3.59,0,0,1-.68-.78,3.15,3.15,0,0,1,0-3,7.28,7.28,0,0,1,1.77-2.09A7.8,7.8,0,0,1,74,249.58c1-.42,2.24-.13,3.63.83,1.84,1.25,3.69,3.58,3.61,5.3a4.35,4.35,0,0,1-1.45,3A5,5,0,0,1,76.46,260ZM75,250.59a1.11,1.11,0,0,0-.46.09,6.83,6.83,0,0,0-1.63,1.16,6,6,0,0,0-1.49,1.73,2,2,0,0,0,0,1.84,2.32,2.32,0,0,0,.46.52h0l1.61,1.41a8.61,8.61,0,0,0,1.19.92,3.87,3.87,0,0,0,4.4-.46,3.2,3.2,0,0,0,1.07-2.14c.05-1.11-1.4-3.1-3.09-4.26A3.86,3.86,0,0,0,75,250.59Z" transform="translate(-18.37 -113.17)" style="fill:#8f8897"/></g><g id="_Group_22" data-name="&lt;Group&gt;"><g id="_Group_23" data-name="&lt;Group&gt;"><path id="_Path_32" data-name="&lt;Path&gt;" d="M78.87,258.86a3.94,3.94,0,0,1-4.73.39c-2-1.22-2.93-3.83-1.28-5.71a10.85,10.85,0,0,1,1.66-1.45,3.31,3.31,0,0,1,.61-.39c1.94-.81,4.15,1.55,4.94,3.06a2.33,2.33,0,0,1,.15,1.66A4.27,4.27,0,0,1,78.87,258.86Z" transform="translate(-18.37 -113.17)" style="fill:#3a0400"/><path id="_Compound_Path_16" data-name="&lt;Compound Path&gt;" d="M76.27,260.46a4.78,4.78,0,0,1-2.44-.69,4.93,4.93,0,0,1-2.38-3.39,3.92,3.92,0,0,1,1-3.24,11.92,11.92,0,0,1,1.75-1.53,3.33,3.33,0,0,1,.74-.46c2.21-.93,4.71,1.44,5.7,3.33a2.88,2.88,0,0,1,.21,2,4.87,4.87,0,0,1-1.54,2.78h0A4.51,4.51,0,0,1,76.27,260.46Zm-.3-8.32a1.37,1.37,0,0,0-.6.12,1.86,1.86,0,0,0-.48.31,10.38,10.38,0,0,0-1.58,1.36,2.74,2.74,0,0,0-.68,2.27,3.78,3.78,0,0,0,1.81,2.54,3.36,3.36,0,0,0,4-.33,3.68,3.68,0,0,0,1.16-2.1,1.66,1.66,0,0,0-.1-1.27C79,253.94,77.39,252.14,76,252.14Z" transform="translate(-18.37 -113.17)" style="fill:#231f20"/></g><g id="_Group_24" data-name="&lt;Group&gt;"><path id="_Path_33" data-name="&lt;Path&gt;" d="M73.41,256a2.77,2.77,0,1,0,2.14-3.28A2.76,2.76,0,0,0,73.41,256Z" transform="translate(-18.37 -113.17)"/><path id="_Compound_Path_17" data-name="&lt;Compound Path&gt;" d="M76.12,258.8a3.36,3.36,0,0,1-3.29-2.66h0a3.36,3.36,0,1,1,4,2.59A3.39,3.39,0,0,1,76.12,258.8ZM74,255.89a2.17,2.17,0,1,0,1.67-2.57,2.14,2.14,0,0,0-1.37.94,2.17,2.17,0,0,0-.3,1.63Z" transform="translate(-18.37 -113.17)" style="fill:#0f0f0f"/></g><g id="_Group_25" data-name="&lt;Group&gt;"><path id="_Path_34" data-name="&lt;Path&gt;" d="M73.38,254.75a.75.75,0,0,0,.92.55.76.76,0,1,0-.92-.55Z" transform="translate(-18.37 -113.17)" style="fill:#fff"/></g></g><path id="_Path_35" data-name="&lt;Path&gt;" d="M104.58,269.13a2.16,2.16,0,0,0-.26-.65,1.69,1.69,0,0,0-1.11-.8.61.61,0,0,0-.67.37.59.59,0,0,0,.23.72,2.24,2.24,0,0,1,.65.72.8.8,0,0,1,0,.31,2.45,2.45,0,0,1-1.14,1.24,9.8,9.8,0,0,1-6.89,1.24,13.6,13.6,0,0,1-6.11-2.9,11.64,11.64,0,0,0-.15-4.08.6.6,0,0,0-.72-.46.59.59,0,0,0-.45.72,10.59,10.59,0,0,1,.14,3.64.08.08,0,0,0,0,0,8.44,8.44,0,0,1-6.94,3.47A9.6,9.6,0,0,1,74,269.26a.85.85,0,0,1-.15-.23c0-.07.19-.28.28-.38a1.87,1.87,0,0,0,.61-1.18.59.59,0,0,0-.31-.54.6.6,0,0,0-.62,0,4.18,4.18,0,0,0-1.58,4.9.6.6,0,1,0,1.11-.43,2.92,2.92,0,0,1-.16-1.28,10.75,10.75,0,0,0,7.91,3.77h.12a9.75,9.75,0,0,0,7.44-3.47,14.58,14.58,0,0,0,6.52,3,11,11,0,0,0,7.75-1.41,6.9,6.9,0,0,0,.59-.43l-.07.11a.6.6,0,1,0,1,.63A3.42,3.42,0,0,0,104.58,269.13Z" transform="translate(-18.37 -113.17)" style="fill:#5a5363"/><g id="_Group_26" data-name="&lt;Group&gt;"><g id="_Group_27" data-name="&lt;Group&gt;"><path id="_Path_36" data-name="&lt;Path&gt;" d="M91.91,259.53a6,6,0,0,0-5.69-.14c-1.47.73-4.34,2.6-3.74,4.66a2.25,2.25,0,0,0,1.16,1.23,7.93,7.93,0,0,0,3.51.7,30.09,30.09,0,0,0,4.84-.26,5.52,5.52,0,0,0,1.85-.5A1.82,1.82,0,0,0,95,263.75C94.92,261.71,93.11,260.31,91.91,259.53Z" transform="translate(-18.37 -113.17)" style="fill:#353535"/><path id="_Compound_Path_18" data-name="&lt;Compound Path&gt;" d="M87.94,266.59h-.8a8.49,8.49,0,0,1-3.78-.77,2.74,2.74,0,0,1-1.45-1.59c-.64-2.15,1.67-4.19,4-5.37a6.63,6.63,0,0,1,6.28.17c.81.53,3.27,2.14,3.34,4.71a2.34,2.34,0,0,1-1.45,2,5.92,5.92,0,0,1-2.05.56A30,30,0,0,1,87.94,266.59ZM89,259.34a5.79,5.79,0,0,0-2.53.58c-1.49.75-3.89,2.41-3.43,4a1.64,1.64,0,0,0,.86.86,7.3,7.3,0,0,0,3.25.64,28.86,28.86,0,0,0,4.74-.25,5,5,0,0,0,1.65-.44c.38-.2.82-.57.81-.92,0-1.31-1-2.54-2.79-3.74h0A4.69,4.69,0,0,0,89,259.34Z" transform="translate(-18.37 -113.17)" style="fill:#231f20"/></g><g id="_Group_28" data-name="&lt;Group&gt;"><path id="_Path_37" data-name="&lt;Path&gt;" d="M90.66,263.54c.17-.43.6-.72,1.37-.61a4.16,4.16,0,0,0,1.88.11,1.48,1.48,0,0,1,.57-.16.63.63,0,0,1,.49.67,1.42,1.42,0,0,1-.4.8C92,267.22,90.19,264.8,90.66,263.54Z" transform="translate(-18.37 -113.17)"/><path id="_Compound_Path_19" data-name="&lt;Compound Path&gt;" d="M92.27,266.3a2.18,2.18,0,0,1-1.14-.32,2.32,2.32,0,0,1-1-2.65,1.71,1.71,0,0,1,2-1l.49.09a2.37,2.37,0,0,0,1.11.05l.12,0a1.36,1.36,0,0,1,.71-.14,1.2,1.2,0,0,1,1,1.29,1.89,1.89,0,0,1-.55,1.17A3.82,3.82,0,0,1,92.27,266.3Zm-.56-2.8c-.26,0-.42.09-.48.25h0a1.12,1.12,0,0,0,.52,1.2c.61.36,1.47,0,2.37-1,.2-.22.25-.36.25-.44s-.05,0-.1,0l-.17.07a3.37,3.37,0,0,1-1.73,0l-.43-.08Z" transform="translate(-18.37 -113.17)" style="fill:#231f20"/></g><g id="_Group_29" data-name="&lt;Group&gt;"><path id="_Path_38" data-name="&lt;Path&gt;" d="M86.7,263.54c-.16-.43-.59-.72-1.36-.61a4.16,4.16,0,0,1-1.88.11,1.53,1.53,0,0,0-.58-.16.64.64,0,0,0-.49.67,1.38,1.38,0,0,0,.41.8C85.36,267.22,87.17,264.8,86.7,263.54Z" transform="translate(-18.37 -113.17)"/><path id="_Compound_Path_20" data-name="&lt;Compound Path&gt;" d="M85.1,266.3a3.82,3.82,0,0,1-2.75-1.55,1.89,1.89,0,0,1-.55-1.17,1.2,1.2,0,0,1,1-1.29,1.52,1.52,0,0,1,.72.14l.11,0a2.41,2.41,0,0,0,1.12-.05l.48-.09a1.72,1.72,0,0,1,2,1h0a2.3,2.3,0,0,1-1,2.65A2.18,2.18,0,0,1,85.1,266.3Zm-2.17-2.82a2.11,2.11,0,0,0,.31.47c.9,1,1.77,1.37,2.38,1a1.13,1.13,0,0,0,.52-1.2h0c-.08-.21-.32-.29-.72-.23l-.42.08a3.37,3.37,0,0,1-1.73,0l-.18-.07Z" transform="translate(-18.37 -113.17)" style="fill:#231f20"/></g><g id="_Group_30" data-name="&lt;Group&gt;" style="opacity:0.24"><path id="_Path_39" data-name="&lt;Path&gt;" d="M85.16,261.34c.17.38.86.44,1.52.14s1.07-.86.9-1.24-.86-.45-1.53-.14S85,261,85.16,261.34Z" transform="translate(-18.37 -113.17)" style="fill:#fff"/></g></g><g id="_Group_31" data-name="&lt;Group&gt;"><path id="_Path_40" data-name="&lt;Path&gt;" d="M77.56,263.11a.61.61,0,0,0,.69-.5.6.6,0,0,0-.49-.69c-17.75-3-42.17,3.19-51.33,10.55a.6.6,0,1,0,.75.93C36,266.35,60.39,260.18,77.56,263.11Z" transform="translate(-18.37 -113.17)" style="fill:#e0e0e0"/><path id="_Path_41" data-name="&lt;Path&gt;" d="M150.06,274.62c-14.66-10.46-39.34-15.53-50.79-12.9a.59.59,0,0,0-.45.72.6.6,0,0,0,.72.45c11-2.52,35.65,2.59,49.82,12.71a.66.66,0,0,0,.35.11.6.6,0,0,0,.35-1.09Z" transform="translate(-18.37 -113.17)" style="fill:#d3d3d3"/><path id="_Path_42" data-name="&lt;Path&gt;" d="M78.44,265.48a.58.58,0,0,0-.61-.59c-20.18.35-38.87,6.92-50,17.58a.6.6,0,0,0,0,.85.62.62,0,0,0,.44.18.58.58,0,0,0,.41-.17c10.91-10.45,29.29-16.9,49.18-17.24A.6.6,0,0,0,78.44,265.48Z" transform="translate(-18.37 -113.17)" style="fill:#e0e0e0"/><path id="_Path_43" data-name="&lt;Path&gt;" d="M99.5,263.81a.59.59,0,0,0-.57.62.55.55,0,0,0,.62.57c15.09-.68,33.18,6.57,48.38,19.41a.62.62,0,0,0,.38.14.58.58,0,0,0,.46-.22.59.59,0,0,0-.07-.84C133.28,270.47,114.89,263.12,99.5,263.81Z" transform="translate(-18.37 -113.17)" style="fill:#d3d3d3"/><path id="_Path_44" data-name="&lt;Path&gt;" d="M98.81,266.3a.58.58,0,0,0-.64.55.59.59,0,0,0,.55.64c14.61,1.14,30.57,10.08,42.68,23.9a.63.63,0,0,0,.46.2.58.58,0,0,0,.39-.15.6.6,0,0,0,.06-.84C130,276.55,113.73,267.46,98.81,266.3Z" transform="translate(-18.37 -113.17)" style="fill:#d3d3d3"/><path id="_Path_45" data-name="&lt;Path&gt;" d="M79,267.24c-19.81,3.89-37.06,13.64-46.13,26.08a.61.61,0,0,0,.48,1,.61.61,0,0,0,.49-.25c8.9-12.2,25.87-21.78,45.39-25.62a.6.6,0,0,0,.47-.7A.59.59,0,0,0,79,267.24Z" transform="translate(-18.37 -113.17)" style="fill:#e0e0e0"/></g></g></g><g id="triangle"><rect x="3.39" width="359.88" height="198.55" style="fill:none"/><rect y="125.1" width="139.2" height="125.65" style="fill:#222"/><polygon points="71.34 194.01 131.03 125.1 11.66 125.1 71.34 194.01" style="fill:#fff;stroke:#fff;stroke-miterlimit:10"/></g><g id="speech"><path d="M337.44,135.58a50.93,50.93,0,0,1,8.73-.31c3.39.34,7,0,10.17,1.14a14.68,14.68,0,0,1,8.56,7.83c1.38,2.87,1.48,6,1.85,9-.28,2.43-.37,4.88-.69,7.32a41,41,0,0,0,1.25,9.45,28.28,28.28,0,0,1,.57,12.34c-.22,2-1.65,3.68-3.12,5.25-2.26,2.6-6.34,3.86-10.23,4.28-6.58.63-13.1-.58-19.6-1.24-5.19-.38-10.32-1.07-15.51-1.5-7.32-.46-14.64-1.08-22-1a126.2,126.2,0,0,0-14.16,0c-7,0-14,.21-20.92.7-8.26.3-16.51.84-24.73,1.56-5.84.37-11.66.86-17.5,1.32-3.8.44-7.64.53-11.48.71-4.21.13-8.56.09-12.56-1.09-3.24-1-6.69-1.89-9.19-3.84a15.83,15.83,0,0,1-5.61-11.05c-.17-2.13-.77-4.29-.27-6.41,2.2-.89,4.46.59,6.74.46a.86.86,0,0,0-.39-1.59,34.73,34.73,0,0,0-9.14-1c-4.83.12-9.62-.44-14.42-.77-7.14-.56-14.31-.87-21.46-1.3,3.85-1.76,8.23-2.66,12.44-3.78,9.68-2.3,19.68-3.75,29.22-6.38a2.13,2.13,0,0,0,1.85-2.12c-2.9-1.05-5.88.75-8.86.69-.74.11-.92-.51-1-.91-.81-3.6.7-7.43,3.76-10.19,3.64-2.85,8.7-4.42,13.76-5.09,10.71-1.38,21.57-.3,32.29.5,12.66,1.18,25.29,2.76,38,3.34,5.49.42,11-.19,16.49-.39,10.19-.69,20.44-1.35,30.45-3,2.43-.28,4.76-.9,7.2-1.14,4-.27,8.05-.37,12-.93,2.54,0,4.94-.7,7.47-.79Z" transform="translate(-18.37 -113.17)" style="fill:#fff;stroke:#fff"/><path d="M194.74,133c3.78-.34,7.6-.39,11.41-.36,19.33.3,38.22,3.95,57.49,4.78,3.07-.05,6.14.27,9.2,0,6-.15,12,.22,17.94-.29,13.81-.79,27.44-2.85,41.27-3.55a96.5,96.5,0,0,1,13.71-.09,91.16,91.16,0,0,1,16.3,1.76c4.53,1.19,8.3,4,9.78,7.52,2.9,6.67.84,13.79,1.93,20.64.61,5.47,1.51,11,.15,16.46-.43,2.28-2.27,4.19-2.95,6.42-1.42,4.28-6.44,7.19-11.64,8.62-2.65.66-5.29,1.36-8,1.9-6.16.8-12.33-.33-18.49-.52-4.57-.36-9.18-.41-13.75-.85-1.71-.18-3.46-.05-5.17-.24-11.15-1.08-22.34-2.15-33.59-2.3-5.54-.36-11.12-.09-16.67-.18-5.28.2-10.56.3-15.82.67-6,.29-11.9,1.12-17.87,1.45-6.86.41-13.61,1.44-20.48,1.76-7.91.53-16.16.17-23.5-2.35-1.9-.53-3.77-1.34-4.76-2.76a35,35,0,0,1-5-9.23,83.44,83.44,0,0,1-1-9.17,96.27,96.27,0,0,0-15.9-2.62c-6.67-.85-13.51-.83-20.1-2.05-2.89-.32-6,.33-8.74-.73A18,18,0,0,1,127,165.3c0-.13.05-.36.07-.48,2-.7,4.25-.72,6.3-1.3,8.15-2.19,16.55-3.76,24.85-5.55,4.8-1,9.95-1.5,14.26-3.51-2.66-3.7-1.55-8.31,1.31-11.75a23.43,23.43,0,0,1,6.36-5.67c4.26-2.4,9.53-3.29,14.61-4.08m142.71,2.63c-2.53.09-4.94.78-7.48.78-4,.57-8,.67-12,.94-2.44.24-4.77.85-7.19,1.14-10,1.69-20.27,2.35-30.46,3-5.5.2-11,.8-16.49.38-12.75-.57-25.38-2.16-38-3.33-10.7-.8-21.57-1.88-32.28-.5-5.06.67-10.11,2.23-13.75,5.09-3.07,2.76-4.58,6.58-3.77,10.18.12.41.29,1,1,.92,3,.06,6-1.74,8.86-.69a2.13,2.13,0,0,1-1.85,2.12c-9.54,2.63-19.54,4.08-29.22,6.38-4.21,1.11-8.59,2-12.43,3.78,7.14.42,14.31.73,21.46,1.29,4.79.33,9.58.89,14.42.78a35.08,35.08,0,0,1,9.13,1,.87.87,0,0,1,.4,1.6c-2.29.13-4.55-1.36-6.75-.46-.5,2.12.11,4.28.27,6.4a15.81,15.81,0,0,0,5.62,11.06c2.49,1.94,5.94,2.85,9.18,3.84,4,1.18,8.35,1.22,12.57,1.08,3.83-.18,7.68-.26,11.48-.7,5.83-.46,11.65-.95,17.5-1.32,8.22-.72,16.46-1.27,24.73-1.56,6.95-.5,13.93-.7,20.91-.71a128.81,128.81,0,0,1,14.17,0c7.35-.11,14.68.52,22,1,5.18.43,10.32,1.12,15.51,1.5,6.49.66,13,1.86,19.6,1.24,3.88-.42,8-1.68,10.22-4.28,1.47-1.57,2.9-3.27,3.12-5.25a28.27,28.27,0,0,0-.57-12.34,40.52,40.52,0,0,1-1.24-9.46c.31-2.43.4-4.88.68-7.31-.36-3-.46-6.1-1.85-9a14.68,14.68,0,0,0-8.56-7.83c-3.17-1.18-6.78-.8-10.16-1.14a50,50,0,0,0-8.74.3Z" transform="translate(-18.37 -113.17)" style="fill:#fff;stroke:#fff"/></g><g id="text"><path d="M232.51,162.67l-.85-2.38h-3.28l-.84,2.38h-1.47l3.2-8.6h1.52l3.21,8.6Zm-1.22-3.59-.81-2.33c-.06-.15-.14-.4-.24-.74s-.17-.58-.21-.73a12.77,12.77,0,0,1-.47,1.57l-.77,2.23Z" transform="translate(-18.37 -113.17)" style="fill:#222"/></g></svg>